{
  "asset": {
    "version": "2.0",
    "generator": "FactoryCore detailed cell asset generator"
  },
  "scene": 0,
  "scenes": [
    {
      "nodes": [
        0,
        1,
        2,
        3,
        4,
        5,
        6,
        7,
        8,
        9,
        10,
        11,
        12,
        13
      ]
    }
  ],
  "nodes": [
    {
      "name": "Motor housing",
      "mesh": 0,
      "translation": [
        0.1,
        0,
        0
      ]
    },
    {
      "name": "Gearbox",
      "mesh": 1,
      "translation": [
        -0.12,
        0,
        0
      ]
    },
    {
      "name": "Shaft",
      "mesh": 2,
      "translation": [
        -0.25,
        0,
        0
      ]
    },
    {
      "name": "Cooling rib",
      "mesh": 3,
      "translation": [
        0,
        0,
        0
      ]
    },
    {
      "name": "Cooling rib",
      "mesh": 3,
      "translation": [
        0.05,
        0,
        0
      ]
    },
    {
      "name": "Cooling rib",
      "mesh": 3,
      "translation": [
        0.1,
        0,
        0
      ]
    },
    {
      "name": "Cooling rib",
      "mesh": 3,
      "translation": [
        0.15,
        0,
        0
      ]
    },
    {
      "name": "Cooling rib",
      "mesh": 3,
      "translation": [
        0.2,
        0,
        0
      ]
    },
    {
      "name": "End cap",
      "mesh": 4,
      "translation": [
        0.28,
        0,
        0
      ]
    },
    {
      "name": "Terminal box",
      "mesh": 5,
      "translation": [
        0.11,
        0.132,
        0
      ]
    },
    {
      "name": "Motor mounting",
      "mesh": 6,
      "translation": [
        0.04,
        -0.12,
        0
      ]
    },
    {
      "name": "Motion",
      "mesh": 7,
      "translation": [
        -0.3,
        0,
        0
      ]
    },
    {
      "name": "Motor cable",
      "mesh": 8,
      "translation": [
        0.14,
        0.16499999999999998,
        0.04
      ],
      "rotation": [
        0.0,
        -0.502487335571598,
        0.18843275083934924,
        0.8438006731457803
      ]
    },
    {
      "name": "Motor cable",
      "mesh": 9,
      "translation": [
        0.245,
        0.15,
        0.095
      ],
      "rotation": [
        0.0,
        -0.08354722390373558,
        -0.16709444780747115,
        0.9823946797951908
      ]
    }
  ],
  "meshes": [
    {
      "name": "Motor housing",
      "primitives": [
        {
          "attributes": {
            "POSITION": 0,
            "NORMAL": 1,
            "TEXCOORD_0": 2
          },
          "indices": 3,
          "material": 3
        }
      ]
    },
    {
      "name": "Gearbox",
      "primitives": [
        {
          "attributes": {
            "POSITION": 4,
            "NORMAL": 5,
            "TEXCOORD_0": 6
          },
          "indices": 7,
          "material": 0
        }
      ]
    },
    {
      "name": "Shaft",
      "primitives": [
        {
          "attributes": {
            "POSITION": 8,
            "NORMAL": 9,
            "TEXCOORD_0": 10
          },
          "indices": 11,
          "material": 1
        }
      ]
    },
    {
      "name": "Cooling rib",
      "primitives": [
        {
          "attributes": {
            "POSITION": 12,
            "NORMAL": 13,
            "TEXCOORD_0": 14
          },
          "indices": 15,
          "material": 2
        }
      ]
    },
    {
      "name": "End cap",
      "primitives": [
        {
          "attributes": {
            "POSITION": 16,
            "NORMAL": 17,
            "TEXCOORD_0": 18
          },
          "indices": 19,
          "material": 2
        }
      ]
    },
    {
      "name": "Terminal box",
      "primitives": [
        {
          "attributes": {
            "POSITION": 20,
            "NORMAL": 21,
            "TEXCOORD_0": 22
          },
          "indices": 23,
          "material": 2
        }
      ]
    },
    {
      "name": "Motor mounting",
      "primitives": [
        {
          "attributes": {
            "POSITION": 24,
            "NORMAL": 25,
            "TEXCOORD_0": 26
          },
          "indices": 27,
          "material": 1
        }
      ]
    },
    {
      "name": "Motion",
      "primitives": [
        {
          "attributes": {
            "POSITION": 28,
            "NORMAL": 29,
            "TEXCOORD_0": 30
          },
          "indices": 31,
          "material": 4
        }
      ]
    },
    {
      "name": "Motor cable",
      "primitives": [
        {
          "attributes": {
            "POSITION": 32,
            "NORMAL": 33,
            "TEXCOORD_0": 34
          },
          "indices": 35,
          "material": 2
        }
      ]
    },
    {
      "name": "Motor cable",
      "primitives": [
        {
          "attributes": {
            "POSITION": 36,
            "NORMAL": 37,
            "TEXCOORD_0": 38
          },
          "indices": 39,
          "material": 2
        }
      ]
    }
  ],
  "materials": [
    {
      "name": "Satin machined aluminium",
      "pbrMetallicRoughness": {
        "baseColorFactor": [
          0.72,
          0.76,
          0.79,
          1
        ],
        "metallicFactor": 0.88,
        "roughnessFactor": 0.25,
        "baseColorTexture": {
          "index": 0
        }
      },
      "normalTexture": {
        "index": 2,
        "scale": 0.35
      }
    },
    {
      "name": "Brushed stainless steel",
      "pbrMetallicRoughness": {
        "baseColorFactor": [
          0.72,
          0.76,
          0.81,
          1
        ],
        "metallicFactor": 0.96,
        "roughnessFactor": 0.19
      }
    },
    {
      "name": "Graphite powder coat",
      "pbrMetallicRoughness": {
        "baseColorFactor": [
          0.035,
          0.047,
          0.06,
          1
        ],
        "metallicFactor": 0.28,
        "roughnessFactor": 0.44
      }
    },
    {
      "name": "Deep teal enclosure",
      "pbrMetallicRoughness": {
        "baseColorFactor": [
          0.035,
          0.22,
          0.245,
          1
        ],
        "metallicFactor": 0.3,
        "roughnessFactor": 0.31
      }
    },
    {
      "name": "Safety yellow",
      "pbrMetallicRoughness": {
        "baseColorFactor": [
          0.95,
          0.57,
          0.035,
          1
        ],
        "metallicFactor": 0.08,
        "roughnessFactor": 0.37
      }
    },
    {
      "name": "Textured conveyor rubber",
      "pbrMetallicRoughness": {
        "baseColorFactor": [
          1,
          1,
          1,
          1
        ],
        "metallicFactor": 0,
        "roughnessFactor": 0.79,
        "baseColorTexture": {
          "index": 1
        }
      }
    },
    {
      "name": "Product ivory polymer",
      "pbrMetallicRoughness": {
        "baseColorFactor": [
          0.76,
          0.75,
          0.64,
          1
        ],
        "metallicFactor": 0.04,
        "roughnessFactor": 0.36
      }
    },
    {
      "name": "Status green",
      "pbrMetallicRoughness": {
        "baseColorFactor": [
          0.04,
          0.7,
          0.24,
          1
        ],
        "metallicFactor": 0,
        "roughnessFactor": 0.22
      },
      "emissiveFactor": [
        0.02,
        0.35,
        0.08
      ]
    },
    {
      "name": "Alarm red",
      "pbrMetallicRoughness": {
        "baseColorFactor": [
          0.8,
          0.018,
          0.015,
          1
        ],
        "metallicFactor": 0,
        "roughnessFactor": 0.3
      },
      "emissiveFactor": [
        0.3,
        0.003,
        0.002
      ]
    },
    {
      "name": "Protective polycarbonate",
      "pbrMetallicRoughness": {
        "baseColorFactor": [
          0.5,
          0.75,
          0.84,
          0.16
        ],
        "metallicFactor": 0,
        "roughnessFactor": 0.08
      },
      "alphaMode": "BLEND",
      "doubleSided": true
    },
    {
      "name": "Operator display",
      "pbrMetallicRoughness": {
        "baseColorFactor": [
          1,
          1,
          1,
          1
        ],
        "metallicFactor": 0,
        "roughnessFactor": 0.31,
        "baseColorTexture": {
          "index": 4
        }
      },
      "emissiveTexture": {
        "index": 4
      },
      "emissiveFactor": [
        0.3,
        0.3,
        0.3
      ]
    },
    {
      "name": "Identification plate",
      "pbrMetallicRoughness": {
        "baseColorFactor": [
          1,
          1,
          1,
          1
        ],
        "metallicFactor": 0.05,
        "roughnessFactor": 0.45,
        "baseColorTexture": {
          "index": 5
        }
      }
    },
    {
      "name": "Product identification",
      "pbrMetallicRoughness": {
        "baseColorFactor": [
          1,
          1,
          1,
          1
        ],
        "metallicFactor": 0,
        "roughnessFactor": 0.6,
        "baseColorTexture": {
          "index": 6
        }
      }
    },
    {
      "name": "Workshop concrete",
      "pbrMetallicRoughness": {
        "baseColorFactor": [
          1,
          1,
          1,
          1
        ],
        "metallicFactor": 0.03,
        "roughnessFactor": 0.72,
        "baseColorTexture": {
          "index": 3
        }
      }
    },
    {
      "name": "Blue pneumatic tube",
      "pbrMetallicRoughness": {
        "baseColorFactor": [
          0.025,
          0.24,
          0.55,
          1
        ],
        "metallicFactor": 0.02,
        "roughnessFactor": 0.34
      }
    }
  ],
  "images": [
    {
      "uri": "../Textures/CellMetal.png"
    },
    {
      "uri": "../Textures/CellRubber.png"
    },
    {
      "uri": "../Textures/CellNormal.png"
    },
    {
      "uri": "../Textures/CellFloor.png"
    },
    {
      "uri": "../Textures/CellPanel.png"
    },
    {
      "uri": "../Textures/CellLabel.png"
    },
    {
      "uri": "../Textures/ProductLabel.png"
    }
  ],
  "textures": [
    {
      "source": 0,
      "sampler": 0
    },
    {
      "source": 1,
      "sampler": 0
    },
    {
      "source": 2,
      "sampler": 0
    },
    {
      "source": 3,
      "sampler": 0
    },
    {
      "source": 4,
      "sampler": 0
    },
    {
      "source": 5,
      "sampler": 0
    },
    {
      "source": 6,
      "sampler": 0
    }
  ],
  "samplers": [
    {
      "magFilter": 9729,
      "minFilter": 9987,
      "wrapS": 10497,
      "wrapT": 10497
    }
  ],
  "buffers": [
    {
      "uri": "CellMotor.bin",
      "byteLength": 213888
    }
  ],
  "bufferViews": [
    {
      "buffer": 0,
      "byteOffset": 0,
      "byteLength": 6264,
      "target": 34962
    },
    {
      "buffer": 0,
      "byteOffset": 6264,
      "byteLength": 6264,
      "target": 34962
    },
    {
      "buffer": 0,
      "byteOffset": 12528,
      "byteLength": 4176,
      "target": 34962
    },
    {
      "buffer": 0,
      "byteOffset": 16704,
      "byteLength": 9216,
      "target": 34963
    },
    {
      "buffer": 0,
      "byteOffset": 25920,
      "byteLength": 3528,
      "target": 34962
    },
    {
      "buffer": 0,
      "byteOffset": 29448,
      "byteLength": 3528,
      "target": 34962
    },
    {
      "buffer": 0,
      "byteOffset": 32976,
      "byteLength": 2352,
      "target": 34962
    },
    {
      "buffer": 0,
      "byteOffset": 35328,
      "byteLength": 5184,
      "target": 34963
    },
    {
      "buffer": 0,
      "byteOffset": 40512,
      "byteLength": 6264,
      "target": 34962
    },
    {
      "buffer": 0,
      "byteOffset": 46776,
      "byteLength": 6264,
      "target": 34962
    },
    {
      "buffer": 0,
      "byteOffset": 53040,
      "byteLength": 4176,
      "target": 34962
    },
    {
      "buffer": 0,
      "byteOffset": 57216,
      "byteLength": 9216,
      "target": 34963
    },
    {
      "buffer": 0,
      "byteOffset": 66432,
      "byteLength": 6264,
      "target": 34962
    },
    {
      "buffer": 0,
      "byteOffset": 72696,
      "byteLength": 6264,
      "target": 34962
    },
    {
      "buffer": 0,
      "byteOffset": 78960,
      "byteLength": 4176,
      "target": 34962
    },
    {
      "buffer": 0,
      "byteOffset": 83136,
      "byteLength": 9216,
      "target": 34963
    },
    {
      "buffer": 0,
      "byteOffset": 92352,
      "byteLength": 6264,
      "target": 34962
    },
    {
      "buffer": 0,
      "byteOffset": 98616,
      "byteLength": 6264,
      "target": 34962
    },
    {
      "buffer": 0,
      "byteOffset": 104880,
      "byteLength": 4176,
      "target": 34962
    },
    {
      "buffer": 0,
      "byteOffset": 109056,
      "byteLength": 9216,
      "target": 34963
    },
    {
      "buffer": 0,
      "byteOffset": 118272,
      "byteLength": 3528,
      "target": 34962
    },
    {
      "buffer": 0,
      "byteOffset": 121800,
      "byteLength": 3528,
      "target": 34962
    },
    {
      "buffer": 0,
      "byteOffset": 125328,
      "byteLength": 2352,
      "target": 34962
    },
    {
      "buffer": 0,
      "byteOffset": 127680,
      "byteLength": 5184,
      "target": 34963
    },
    {
      "buffer": 0,
      "byteOffset": 132864,
      "byteLength": 3528,
      "target": 34962
    },
    {
      "buffer": 0,
      "byteOffset": 136392,
      "byteLength": 3528,
      "target": 34962
    },
    {
      "buffer": 0,
      "byteOffset": 139920,
      "byteLength": 2352,
      "target": 34962
    },
    {
      "buffer": 0,
      "byteOffset": 142272,
      "byteLength": 5184,
      "target": 34963
    },
    {
      "buffer": 0,
      "byteOffset": 147456,
      "byteLength": 3528,
      "target": 34962
    },
    {
      "buffer": 0,
      "byteOffset": 150984,
      "byteLength": 3528,
      "target": 34962
    },
    {
      "buffer": 0,
      "byteOffset": 154512,
      "byteLength": 2352,
      "target": 34962
    },
    {
      "buffer": 0,
      "byteOffset": 156864,
      "byteLength": 5184,
      "target": 34963
    },
    {
      "buffer": 0,
      "byteOffset": 162048,
      "byteLength": 6264,
      "target": 34962
    },
    {
      "buffer": 0,
      "byteOffset": 168312,
      "byteLength": 6264,
      "target": 34962
    },
    {
      "buffer": 0,
      "byteOffset": 174576,
      "byteLength": 4176,
      "target": 34962
    },
    {
      "buffer": 0,
      "byteOffset": 178752,
      "byteLength": 9216,
      "target": 34963
    },
    {
      "buffer": 0,
      "byteOffset": 187968,
      "byteLength": 6264,
      "target": 34962
    },
    {
      "buffer": 0,
      "byteOffset": 194232,
      "byteLength": 6264,
      "target": 34962
    },
    {
      "buffer": 0,
      "byteOffset": 200496,
      "byteLength": 4176,
      "target": 34962
    },
    {
      "buffer": 0,
      "byteOffset": 204672,
      "byteLength": 9216,
      "target": 34963
    }
  ],
  "accessors": [
    {
      "bufferView": 0,
      "componentType": 5126,
      "count": 522,
      "type": "VEC3",
      "min": [
        -0.17,
        -0.1,
        -0.10000000000000002
      ],
      "max": [
        0.17,
        0.1,
        0.10000000000000002
      ]
    },
    {
      "bufferView": 1,
      "componentType": 5126,
      "count": 522,
      "type": "VEC3",
      "min": [
        -1,
        -1.0,
        -1.0
      ],
      "max": [
        1,
        1.0,
        1.0
      ]
    },
    {
      "bufferView": 2,
      "componentType": 5126,
      "count": 522,
      "type": "VEC2"
    },
    {
      "bufferView": 3,
      "componentType": 5125,
      "count": 2304,
      "type": "SCALAR"
    },
    {
      "bufferView": 4,
      "componentType": 5126,
      "count": 294,
      "type": "VEC3",
      "min": [
        -0.07,
        -0.12,
        -0.12
      ],
      "max": [
        0.07,
        0.12,
        0.12
      ]
    },
    {
      "bufferView": 5,
      "componentType": 5126,
      "count": 294,
      "type": "VEC3",
      "min": [
        -1.0,
        -1.0,
        -1.0
      ],
      "max": [
        1.0,
        1.0,
        1.0
      ]
    },
    {
      "bufferView": 6,
      "componentType": 5126,
      "count": 294,
      "type": "VEC2"
    },
    {
      "bufferView": 7,
      "componentType": 5125,
      "count": 1296,
      "type": "SCALAR"
    },
    {
      "bufferView": 8,
      "componentType": 5126,
      "count": 522,
      "type": "VEC3",
      "min": [
        -0.07,
        -0.025,
        -0.025000000000000005
      ],
      "max": [
        0.07,
        0.025,
        0.025000000000000005
      ]
    },
    {
      "bufferView": 9,
      "componentType": 5126,
      "count": 522,
      "type": "VEC3",
      "min": [
        -1,
        -1.0,
        -1.0
      ],
      "max": [
        1,
        1.0,
        1.0
      ]
    },
    {
      "bufferView": 10,
      "componentType": 5126,
      "count": 522,
      "type": "VEC2"
    },
    {
      "bufferView": 11,
      "componentType": 5125,
      "count": 2304,
      "type": "SCALAR"
    },
    {
      "bufferView": 12,
      "componentType": 5126,
      "count": 522,
      "type": "VEC3",
      "min": [
        -0.006,
        -0.1075,
        -0.10749999999999998
      ],
      "max": [
        0.006,
        0.1075,
        0.10749999999999998
      ]
    },
    {
      "bufferView": 13,
      "componentType": 5126,
      "count": 522,
      "type": "VEC3",
      "min": [
        -1,
        -1.0,
        -1.0
      ],
      "max": [
        1,
        1.0,
        1.0
      ]
    },
    {
      "bufferView": 14,
      "componentType": 5126,
      "count": 522,
      "type": "VEC2"
    },
    {
      "bufferView": 15,
      "componentType": 5125,
      "count": 2304,
      "type": "SCALAR"
    },
    {
      "bufferView": 16,
      "componentType": 5126,
      "count": 522,
      "type": "VEC3",
      "min": [
        -0.0125,
        -0.095,
        -0.095
      ],
      "max": [
        0.0125,
        0.095,
        0.095
      ]
    },
    {
      "bufferView": 17,
      "componentType": 5126,
      "count": 522,
      "type": "VEC3",
      "min": [
        -1,
        -1.0,
        -1.0
      ],
      "max": [
        1,
        1.0,
        1.0
      ]
    },
    {
      "bufferView": 18,
      "componentType": 5126,
      "count": 522,
      "type": "VEC2"
    },
    {
      "bufferView": 19,
      "componentType": 5125,
      "count": 2304,
      "type": "SCALAR"
    },
    {
      "bufferView": 20,
      "componentType": 5126,
      "count": 294,
      "type": "VEC3",
      "min": [
        -0.06,
        -0.0375,
        -0.055
      ],
      "max": [
        0.06,
        0.0375,
        0.055
      ]
    },
    {
      "bufferView": 21,
      "componentType": 5126,
      "count": 294,
      "type": "VEC3",
      "min": [
        -1.0,
        -1.0,
        -1.0
      ],
      "max": [
        1.0,
        1.0,
        1.0
      ]
    },
    {
      "bufferView": 22,
      "componentType": 5126,
      "count": 294,
      "type": "VEC2"
    },
    {
      "bufferView": 23,
      "componentType": 5125,
      "count": 1296,
      "type": "SCALAR"
    },
    {
      "bufferView": 24,
      "componentType": 5126,
      "count": 294,
      "type": "VEC3",
      "min": [
        -0.145,
        -0.0175,
        -0.145
      ],
      "max": [
        0.145,
        0.0175,
        0.145
      ]
    },
    {
      "bufferView": 25,
      "componentType": 5126,
      "count": 294,
      "type": "VEC3",
      "min": [
        -1.0,
        -1.0,
        -1.0
      ],
      "max": [
        1.0,
        1.0,
        1.0
      ]
    },
    {
      "bufferView": 26,
      "componentType": 5126,
      "count": 294,
      "type": "VEC2"
    },
    {
      "bufferView": 27,
      "componentType": 5125,
      "count": 1296,
      "type": "SCALAR"
    },
    {
      "bufferView": 28,
      "componentType": 5126,
      "count": 294,
      "type": "VEC3",
      "min": [
        -0.02,
        -0.029,
        -0.02
      ],
      "max": [
        0.02,
        0.029,
        0.02
      ]
    },
    {
      "bufferView": 29,
      "componentType": 5126,
      "count": 294,
      "type": "VEC3",
      "min": [
        -1.0,
        -1.0,
        -1.0
      ],
      "max": [
        1.0,
        1.0,
        1.0
      ]
    },
    {
      "bufferView": 30,
      "componentType": 5126,
      "count": 294,
      "type": "VEC2"
    },
    {
      "bufferView": 31,
      "componentType": 5125,
      "count": 1296,
      "type": "SCALAR"
    },
    {
      "bufferView": 32,
      "componentType": 5126,
      "count": 522,
      "type": "VEC3",
      "min": [
        -0.04716990566028302,
        -0.012,
        -0.012
      ],
      "max": [
        0.04716990566028302,
        0.012,
        0.012
      ]
    },
    {
      "bufferView": 33,
      "componentType": 5126,
      "count": 522,
      "type": "VEC3",
      "min": [
        -1,
        -1.0,
        -1.0
      ],
      "max": [
        1,
        1.0,
        1.0
      ]
    },
    {
      "bufferView": 34,
      "componentType": 5126,
      "count": 522,
      "type": "VEC2"
    },
    {
      "bufferView": 35,
      "componentType": 5125,
      "count": 2304,
      "type": "SCALAR"
    },
    {
      "bufferView": 36,
      "componentType": 5126,
      "count": 522,
      "type": "VEC3",
      "min": [
        -0.09137833441248533,
        -0.012,
        -0.012
      ],
      "max": [
        0.09137833441248533,
        0.012,
        0.012
      ]
    },
    {
      "bufferView": 37,
      "componentType": 5126,
      "count": 522,
      "type": "VEC3",
      "min": [
        -1,
        -1.0,
        -1.0
      ],
      "max": [
        1,
        1.0,
        1.0
      ]
    },
    {
      "bufferView": 38,
      "componentType": 5126,
      "count": 522,
      "type": "VEC2"
    },
    {
      "bufferView": 39,
      "componentType": 5125,
      "count": 2304,
      "type": "SCALAR"
    }
  ]
}
