{
  "asset": {
    "version": "2.0",
    "generator": "FactoryCore detailed cell asset generator"
  },
  "scene": 0,
  "scenes": [
    {
      "nodes": [
        0,
        1,
        2,
        3,
        4,
        5,
        6,
        7,
        8,
        9,
        10,
        11,
        12,
        13,
        14,
        15,
        16,
        17,
        18,
        19,
        20,
        21,
        22,
        23,
        24,
        25,
        26,
        27,
        28,
        29,
        30,
        31,
        32,
        33,
        34,
        35,
        36,
        37,
        38,
        39,
        40,
        41,
        42,
        43,
        44,
        45,
        46,
        47,
        48,
        49,
        50,
        51,
        52,
        53,
        54,
        55,
        56,
        57,
        58,
        59,
        60,
        61,
        62,
        63,
        64,
        65,
        66,
        67,
        68,
        69,
        70,
        71,
        72,
        73,
        74,
        75,
        76,
        77,
        78,
        79,
        80,
        81,
        82,
        83,
        84,
        85,
        86,
        87,
        88,
        89,
        90,
        91,
        92,
        93,
        94,
        95,
        96,
        97,
        98
      ]
    }
  ],
  "nodes": [
    {
      "name": "Continuous belt",
      "mesh": 0,
      "translation": [
        0,
        0.777,
        0
      ]
    },
    {
      "name": "Extruded side rail",
      "mesh": 1,
      "translation": [
        0,
        0.665,
        -0.36
      ]
    },
    {
      "name": "Guide rail",
      "mesh": 2,
      "translation": [
        0,
        0.845,
        -0.3132
      ]
    },
    {
      "name": "Rail channel",
      "mesh": 3,
      "translation": [
        0,
        0.68,
        -0.395
      ]
    },
    {
      "name": "Belt guide bracket",
      "mesh": 4,
      "translation": [
        -1.5,
        0.76,
        -0.36
      ]
    },
    {
      "name": "Hex fastener",
      "mesh": 5,
      "translation": [
        -1.5,
        0.68,
        -0.39999999999999997
      ],
      "rotation": [
        0,
        -0.7071067811865476,
        0,
        0.7071067811865476
      ]
    },
    {
      "name": "Belt guide bracket",
      "mesh": 4,
      "translation": [
        -0.8,
        0.76,
        -0.36
      ]
    },
    {
      "name": "Hex fastener",
      "mesh": 5,
      "translation": [
        -0.8,
        0.68,
        -0.39999999999999997
      ],
      "rotation": [
        0,
        -0.7071067811865476,
        0,
        0.7071067811865476
      ]
    },
    {
      "name": "Belt guide bracket",
      "mesh": 4,
      "translation": [
        0,
        0.76,
        -0.36
      ]
    },
    {
      "name": "Hex fastener",
      "mesh": 5,
      "translation": [
        0,
        0.68,
        -0.39999999999999997
      ],
      "rotation": [
        0,
        -0.7071067811865476,
        0,
        0.7071067811865476
      ]
    },
    {
      "name": "Belt guide bracket",
      "mesh": 4,
      "translation": [
        0.8,
        0.76,
        -0.36
      ]
    },
    {
      "name": "Hex fastener",
      "mesh": 5,
      "translation": [
        0.8,
        0.68,
        -0.39999999999999997
      ],
      "rotation": [
        0,
        -0.7071067811865476,
        0,
        0.7071067811865476
      ]
    },
    {
      "name": "Belt guide bracket",
      "mesh": 4,
      "translation": [
        1.5,
        0.76,
        -0.36
      ]
    },
    {
      "name": "Hex fastener",
      "mesh": 5,
      "translation": [
        1.5,
        0.68,
        -0.39999999999999997
      ],
      "rotation": [
        0,
        -0.7071067811865476,
        0,
        0.7071067811865476
      ]
    },
    {
      "name": "Extruded side rail",
      "mesh": 1,
      "translation": [
        0,
        0.665,
        0.36
      ]
    },
    {
      "name": "Guide rail",
      "mesh": 2,
      "translation": [
        0,
        0.845,
        0.3132
      ]
    },
    {
      "name": "Rail channel",
      "mesh": 3,
      "translation": [
        0,
        0.68,
        0.395
      ]
    },
    {
      "name": "Belt guide bracket",
      "mesh": 4,
      "translation": [
        -1.5,
        0.76,
        0.36
      ]
    },
    {
      "name": "Hex fastener",
      "mesh": 5,
      "translation": [
        -1.5,
        0.68,
        0.39999999999999997
      ],
      "rotation": [
        0,
        -0.7071067811865476,
        0,
        0.7071067811865476
      ]
    },
    {
      "name": "Belt guide bracket",
      "mesh": 4,
      "translation": [
        -0.8,
        0.76,
        0.36
      ]
    },
    {
      "name": "Hex fastener",
      "mesh": 5,
      "translation": [
        -0.8,
        0.68,
        0.39999999999999997
      ],
      "rotation": [
        0,
        -0.7071067811865476,
        0,
        0.7071067811865476
      ]
    },
    {
      "name": "Belt guide bracket",
      "mesh": 4,
      "translation": [
        0,
        0.76,
        0.36
      ]
    },
    {
      "name": "Hex fastener",
      "mesh": 5,
      "translation": [
        0,
        0.68,
        0.39999999999999997
      ],
      "rotation": [
        0,
        -0.7071067811865476,
        0,
        0.7071067811865476
      ]
    },
    {
      "name": "Belt guide bracket",
      "mesh": 4,
      "translation": [
        0.8,
        0.76,
        0.36
      ]
    },
    {
      "name": "Hex fastener",
      "mesh": 5,
      "translation": [
        0.8,
        0.68,
        0.39999999999999997
      ],
      "rotation": [
        0,
        -0.7071067811865476,
        0,
        0.7071067811865476
      ]
    },
    {
      "name": "Belt guide bracket",
      "mesh": 4,
      "translation": [
        1.5,
        0.76,
        0.36
      ]
    },
    {
      "name": "Hex fastener",
      "mesh": 5,
      "translation": [
        1.5,
        0.68,
        0.39999999999999997
      ],
      "rotation": [
        0,
        -0.7071067811865476,
        0,
        0.7071067811865476
      ]
    },
    {
      "name": "BeltRoller",
      "mesh": 6,
      "translation": [
        -1.63,
        0.725,
        0
      ],
      "rotation": [
        0,
        -0.7071067811865476,
        0,
        0.7071067811865476
      ]
    },
    {
      "name": "Bearing block",
      "mesh": 7,
      "translation": [
        -1.63,
        0.69,
        -0.39
      ]
    },
    {
      "name": "Bearing cover",
      "mesh": 8,
      "translation": [
        -1.63,
        0.69,
        -0.435
      ],
      "rotation": [
        0,
        -0.7071067811865476,
        0,
        0.7071067811865476
      ]
    },
    {
      "name": "Bearing block",
      "mesh": 7,
      "translation": [
        -1.63,
        0.69,
        0.39
      ]
    },
    {
      "name": "Bearing cover",
      "mesh": 8,
      "translation": [
        -1.63,
        0.69,
        0.435
      ],
      "rotation": [
        0,
        -0.7071067811865476,
        0,
        0.7071067811865476
      ]
    },
    {
      "name": "BeltRoller",
      "mesh": 6,
      "translation": [
        1.63,
        0.725,
        0
      ],
      "rotation": [
        0,
        -0.7071067811865476,
        0,
        0.7071067811865476
      ]
    },
    {
      "name": "Bearing block",
      "mesh": 7,
      "translation": [
        1.63,
        0.69,
        -0.39
      ]
    },
    {
      "name": "Bearing cover",
      "mesh": 8,
      "translation": [
        1.63,
        0.69,
        -0.435
      ],
      "rotation": [
        0,
        -0.7071067811865476,
        0,
        0.7071067811865476
      ]
    },
    {
      "name": "Bearing block",
      "mesh": 7,
      "translation": [
        1.63,
        0.69,
        0.39
      ]
    },
    {
      "name": "Bearing cover",
      "mesh": 8,
      "translation": [
        1.63,
        0.69,
        0.435
      ],
      "rotation": [
        0,
        -0.7071067811865476,
        0,
        0.7071067811865476
      ]
    },
    {
      "name": "Vertical extrusion",
      "mesh": 9,
      "translation": [
        -1.35,
        0.325,
        -0.32
      ]
    },
    {
      "name": "Levelling foot",
      "mesh": 10,
      "translation": [
        -1.35,
        0.015,
        -0.32
      ],
      "rotation": [
        0,
        0,
        0.7071067811865476,
        0.7071067811865476
      ]
    },
    {
      "name": "Foot stud",
      "mesh": 11,
      "translation": [
        -1.35,
        0.08,
        -0.32
      ],
      "rotation": [
        0,
        0,
        0.7071067811865476,
        0.7071067811865476
      ]
    },
    {
      "name": "Vertical extrusion",
      "mesh": 9,
      "translation": [
        -1.35,
        0.325,
        0.32
      ]
    },
    {
      "name": "Levelling foot",
      "mesh": 10,
      "translation": [
        -1.35,
        0.015,
        0.32
      ],
      "rotation": [
        0,
        0,
        0.7071067811865476,
        0.7071067811865476
      ]
    },
    {
      "name": "Foot stud",
      "mesh": 11,
      "translation": [
        -1.35,
        0.08,
        0.32
      ],
      "rotation": [
        0,
        0,
        0.7071067811865476,
        0.7071067811865476
      ]
    },
    {
      "name": "Cross brace",
      "mesh": 12,
      "translation": [
        -1.35,
        0.19,
        0
      ]
    },
    {
      "name": "Vertical extrusion",
      "mesh": 9,
      "translation": [
        1.35,
        0.325,
        -0.32
      ]
    },
    {
      "name": "Levelling foot",
      "mesh": 10,
      "translation": [
        1.35,
        0.015,
        -0.32
      ],
      "rotation": [
        0,
        0,
        0.7071067811865476,
        0.7071067811865476
      ]
    },
    {
      "name": "Foot stud",
      "mesh": 11,
      "translation": [
        1.35,
        0.08,
        -0.32
      ],
      "rotation": [
        0,
        0,
        0.7071067811865476,
        0.7071067811865476
      ]
    },
    {
      "name": "Vertical extrusion",
      "mesh": 9,
      "translation": [
        1.35,
        0.325,
        0.32
      ]
    },
    {
      "name": "Levelling foot",
      "mesh": 10,
      "translation": [
        1.35,
        0.015,
        0.32
      ],
      "rotation": [
        0,
        0,
        0.7071067811865476,
        0.7071067811865476
      ]
    },
    {
      "name": "Foot stud",
      "mesh": 11,
      "translation": [
        1.35,
        0.08,
        0.32
      ],
      "rotation": [
        0,
        0,
        0.7071067811865476,
        0.7071067811865476
      ]
    },
    {
      "name": "Cross brace",
      "mesh": 12,
      "translation": [
        1.35,
        0.19,
        0
      ]
    },
    {
      "name": "Lower stretcher",
      "mesh": 13,
      "translation": [
        0,
        0.19,
        -0.32
      ]
    },
    {
      "name": "Lower stretcher",
      "mesh": 13,
      "translation": [
        0,
        0.19,
        0.32
      ]
    },
    {
      "name": "Gantry column",
      "mesh": 14,
      "translation": [
        0,
        0.99,
        -0.52
      ]
    },
    {
      "name": "Gantry foot",
      "mesh": 15,
      "translation": [
        0,
        0.0225,
        -0.52
      ]
    },
    {
      "name": "Column slot",
      "mesh": 16,
      "translation": [
        0.042,
        1.1,
        -0.52
      ]
    },
    {
      "name": "Gantry column",
      "mesh": 14,
      "translation": [
        0,
        0.99,
        0.52
      ]
    },
    {
      "name": "Gantry foot",
      "mesh": 15,
      "translation": [
        0,
        0.0225,
        0.52
      ]
    },
    {
      "name": "Column slot",
      "mesh": 16,
      "translation": [
        0.042,
        1.1,
        0.52
      ]
    },
    {
      "name": "Gantry upper beam",
      "mesh": 17,
      "translation": [
        0,
        1.975,
        0
      ]
    },
    {
      "name": "Head mounting plate",
      "mesh": 18,
      "translation": [
        0,
        1.845,
        0
      ]
    },
    {
      "name": "Rear safety panel",
      "mesh": 19,
      "translation": [
        0,
        1.31,
        -0.53
      ]
    },
    {
      "name": "Guard edge",
      "mesh": 20,
      "translation": [
        -0.5,
        1.31,
        -0.53
      ]
    },
    {
      "name": "Guard edge",
      "mesh": 20,
      "translation": [
        0.5,
        1.31,
        -0.53
      ]
    },
    {
      "name": "Guard edge",
      "mesh": 21,
      "translation": [
        0,
        0.93,
        -0.53
      ]
    },
    {
      "name": "Guard edge",
      "mesh": 21,
      "translation": [
        0,
        1.69,
        -0.53
      ]
    },
    {
      "name": "PLC cabinet",
      "mesh": 22,
      "translation": [
        -0.67,
        0.64,
        0.78
      ]
    },
    {
      "name": "Cabinet door",
      "mesh": 23,
      "translation": [
        -0.67,
        0.64,
        0.912
      ]
    },
    {
      "name": "HMI bezel",
      "mesh": 24,
      "translation": [
        -0.67,
        0.8,
        0.931
      ]
    },
    {
      "name": "PLC operator screen",
      "mesh": 25,
      "translation": [
        -0.67,
        0.8,
        0.945
      ]
    },
    {
      "name": "Cabinet label",
      "mesh": 26,
      "translation": [
        -0.67,
        0.48,
        0.927
      ]
    },
    {
      "name": "Pushbutton collar",
      "mesh": 27,
      "translation": [
        -0.83,
        0.62,
        0.938
      ],
      "rotation": [
        0,
        -0.7071067811865476,
        0,
        0.7071067811865476
      ]
    },
    {
      "name": "Pushbutton",
      "mesh": 28,
      "translation": [
        -0.83,
        0.62,
        0.956
      ],
      "rotation": [
        0,
        -0.7071067811865476,
        0,
        0.7071067811865476
      ]
    },
    {
      "name": "Pushbutton collar",
      "mesh": 27,
      "translation": [
        -0.68,
        0.62,
        0.938
      ],
      "rotation": [
        0,
        -0.7071067811865476,
        0,
        0.7071067811865476
      ]
    },
    {
      "name": "Pushbutton",
      "mesh": 29,
      "translation": [
        -0.68,
        0.62,
        0.956
      ],
      "rotation": [
        0,
        -0.7071067811865476,
        0,
        0.7071067811865476
      ]
    },
    {
      "name": "Pushbutton collar",
      "mesh": 27,
      "translation": [
        -0.53,
        0.62,
        0.938
      ],
      "rotation": [
        0,
        -0.7071067811865476,
        0,
        0.7071067811865476
      ]
    },
    {
      "name": "Pushbutton",
      "mesh": 30,
      "translation": [
        -0.53,
        0.62,
        0.956
      ],
      "rotation": [
        0,
        -0.7071067811865476,
        0,
        0.7071067811865476
      ]
    },
    {
      "name": "Door handle",
      "mesh": 31,
      "translation": [
        -0.45,
        0.57,
        0.939
      ]
    },
    {
      "name": "Cabinet foot",
      "mesh": 32,
      "translation": [
        -0.89,
        0.0075,
        0.77
      ]
    },
    {
      "name": "Cabinet support",
      "mesh": 33,
      "translation": [
        -0.89,
        0.115,
        0.77
      ]
    },
    {
      "name": "Cabinet foot",
      "mesh": 32,
      "translation": [
        -0.45,
        0.0075,
        0.77
      ]
    },
    {
      "name": "Cabinet support",
      "mesh": 33,
      "translation": [
        -0.45,
        0.115,
        0.77
      ]
    },
    {
      "name": "Infeed nose",
      "mesh": 34,
      "translation": [
        -1.79,
        0.75,
        -0.21
      ]
    },
    {
      "name": "Infeed nose",
      "mesh": 34,
      "translation": [
        -1.79,
        0.75,
        0.21
      ]
    },
    {
      "name": "Yellow end marker",
      "mesh": 35,
      "translation": [
        -1.53,
        0.81,
        0
      ]
    },
    {
      "name": "Yellow end marker",
      "mesh": 35,
      "translation": [
        -1.47,
        0.81,
        0
      ]
    },
    {
      "name": "Belt seam",
      "mesh": 36,
      "translation": [
        -1.05,
        0.802,
        0
      ]
    },
    {
      "name": "Belt seam",
      "mesh": 36,
      "translation": [
        -0.6,
        0.802,
        0
      ]
    },
    {
      "name": "Belt seam",
      "mesh": 36,
      "translation": [
        0.45,
        0.802,
        0
      ]
    },
    {
      "name": "Belt seam",
      "mesh": 36,
      "translation": [
        0.9,
        0.802,
        0
      ]
    },
    {
      "name": "Belt seam",
      "mesh": 36,
      "translation": [
        1.25,
        0.802,
        0
      ]
    },
    {
      "name": "Motor support shelf",
      "mesh": 37,
      "translation": [
        1.6,
        0.55,
        0.52
      ]
    },
    {
      "name": "Motor support web",
      "mesh": 38,
      "translation": [
        1.63,
        0.61,
        0.36
      ]
    },
    {
      "name": "Cable harness",
      "mesh": 39,
      "translation": [
        -0.67,
        0.25,
        0.61
      ],
      "rotation": [
        0.0,
        0.7,
        -0.09999999999999999,
        0.7071067811865476
      ]
    },
    {
      "name": "Cable harness",
      "mesh": 40,
      "translation": [
        0.08999999999999997,
        0.23,
        0.47
      ],
      "rotation": [
        0.0,
        0.0,
        0.0,
        1.0
      ]
    },
    {
      "name": "Cable harness",
      "mesh": 41,
      "translation": [
        1.16,
        0.39999999999999997,
        0.52
      ],
      "rotation": [
        0.0,
        -0.07244214359127207,
        0.24630328821032513,
        0.9664816739331806
      ]
    },
    {
      "name": "Pneumatic supply",
      "mesh": 42,
      "translation": [
        0.095,
        1.9,
        0.36
      ],
      "rotation": [
        0.0,
        0.0,
        0.0,
        1.0
      ]
    },
    {
      "name": "Pneumatic supply",
      "mesh": 43,
      "translation": [
        0.16,
        1.7999999999999998,
        0.22
      ],
      "rotation": [
        0.0,
        0.5753964555687505,
        -0.4109974682633932,
        0.7071067811865476
      ]
    },
    {
      "name": "Pneumatic supply",
      "mesh": 44,
      "translation": [
        0.114,
        1.7,
        0.04
      ],
      "rotation": [
        -0.0,
        0.9366444154970193,
        0.0,
        0.3502816565540474
      ]
    }
  ],
  "meshes": [
    {
      "name": "Continuous belt",
      "primitives": [
        {
          "attributes": {
            "POSITION": 0,
            "NORMAL": 1,
            "TEXCOORD_0": 2
          },
          "indices": 3,
          "material": 5
        }
      ]
    },
    {
      "name": "Extruded side rail",
      "primitives": [
        {
          "attributes": {
            "POSITION": 4,
            "NORMAL": 5,
            "TEXCOORD_0": 6
          },
          "indices": 7,
          "material": 0
        }
      ]
    },
    {
      "name": "Guide rail",
      "primitives": [
        {
          "attributes": {
            "POSITION": 8,
            "NORMAL": 9,
            "TEXCOORD_0": 10
          },
          "indices": 11,
          "material": 1
        }
      ]
    },
    {
      "name": "Rail channel",
      "primitives": [
        {
          "attributes": {
            "POSITION": 12,
            "NORMAL": 13,
            "TEXCOORD_0": 14
          },
          "indices": 15,
          "material": 2
        }
      ]
    },
    {
      "name": "Belt guide bracket",
      "primitives": [
        {
          "attributes": {
            "POSITION": 16,
            "NORMAL": 17,
            "TEXCOORD_0": 18
          },
          "indices": 19,
          "material": 2
        }
      ]
    },
    {
      "name": "Hex fastener",
      "primitives": [
        {
          "attributes": {
            "POSITION": 20,
            "NORMAL": 21,
            "TEXCOORD_0": 22
          },
          "indices": 23,
          "material": 1
        }
      ]
    },
    {
      "name": "BeltRoller",
      "primitives": [
        {
          "attributes": {
            "POSITION": 24,
            "NORMAL": 25,
            "TEXCOORD_0": 26
          },
          "indices": 27,
          "material": 1
        }
      ]
    },
    {
      "name": "Bearing block",
      "primitives": [
        {
          "attributes": {
            "POSITION": 28,
            "NORMAL": 29,
            "TEXCOORD_0": 30
          },
          "indices": 31,
          "material": 2
        }
      ]
    },
    {
      "name": "Bearing cover",
      "primitives": [
        {
          "attributes": {
            "POSITION": 32,
            "NORMAL": 33,
            "TEXCOORD_0": 34
          },
          "indices": 35,
          "material": 1
        }
      ]
    },
    {
      "name": "Vertical extrusion",
      "primitives": [
        {
          "attributes": {
            "POSITION": 36,
            "NORMAL": 37,
            "TEXCOORD_0": 38
          },
          "indices": 39,
          "material": 0
        }
      ]
    },
    {
      "name": "Levelling foot",
      "primitives": [
        {
          "attributes": {
            "POSITION": 40,
            "NORMAL": 41,
            "TEXCOORD_0": 42
          },
          "indices": 43,
          "material": 2
        }
      ]
    },
    {
      "name": "Foot stud",
      "primitives": [
        {
          "attributes": {
            "POSITION": 44,
            "NORMAL": 45,
            "TEXCOORD_0": 46
          },
          "indices": 47,
          "material": 1
        }
      ]
    },
    {
      "name": "Cross brace",
      "primitives": [
        {
          "attributes": {
            "POSITION": 48,
            "NORMAL": 49,
            "TEXCOORD_0": 50
          },
          "indices": 51,
          "material": 0
        }
      ]
    },
    {
      "name": "Lower stretcher",
      "primitives": [
        {
          "attributes": {
            "POSITION": 52,
            "NORMAL": 53,
            "TEXCOORD_0": 54
          },
          "indices": 55,
          "material": 0
        }
      ]
    },
    {
      "name": "Gantry column",
      "primitives": [
        {
          "attributes": {
            "POSITION": 56,
            "NORMAL": 57,
            "TEXCOORD_0": 58
          },
          "indices": 59,
          "material": 0
        }
      ]
    },
    {
      "name": "Gantry foot",
      "primitives": [
        {
          "attributes": {
            "POSITION": 60,
            "NORMAL": 61,
            "TEXCOORD_0": 62
          },
          "indices": 63,
          "material": 2
        }
      ]
    },
    {
      "name": "Column slot",
      "primitives": [
        {
          "attributes": {
            "POSITION": 64,
            "NORMAL": 65,
            "TEXCOORD_0": 66
          },
          "indices": 67,
          "material": 2
        }
      ]
    },
    {
      "name": "Gantry upper beam",
      "primitives": [
        {
          "attributes": {
            "POSITION": 68,
            "NORMAL": 69,
            "TEXCOORD_0": 70
          },
          "indices": 71,
          "material": 0
        }
      ]
    },
    {
      "name": "Head mounting plate",
      "primitives": [
        {
          "attributes": {
            "POSITION": 72,
            "NORMAL": 73,
            "TEXCOORD_0": 74
          },
          "indices": 75,
          "material": 1
        }
      ]
    },
    {
      "name": "Rear safety panel",
      "primitives": [
        {
          "attributes": {
            "POSITION": 76,
            "NORMAL": 77,
            "TEXCOORD_0": 78
          },
          "indices": 79,
          "material": 9
        }
      ]
    },
    {
      "name": "Guard edge",
      "primitives": [
        {
          "attributes": {
            "POSITION": 80,
            "NORMAL": 81,
            "TEXCOORD_0": 82
          },
          "indices": 83,
          "material": 4
        }
      ]
    },
    {
      "name": "Guard edge",
      "primitives": [
        {
          "attributes": {
            "POSITION": 84,
            "NORMAL": 85,
            "TEXCOORD_0": 86
          },
          "indices": 87,
          "material": 4
        }
      ]
    },
    {
      "name": "PLC cabinet",
      "primitives": [
        {
          "attributes": {
            "POSITION": 88,
            "NORMAL": 89,
            "TEXCOORD_0": 90
          },
          "indices": 91,
          "material": 3
        }
      ]
    },
    {
      "name": "Cabinet door",
      "primitives": [
        {
          "attributes": {
            "POSITION": 92,
            "NORMAL": 93,
            "TEXCOORD_0": 94
          },
          "indices": 95,
          "material": 2
        }
      ]
    },
    {
      "name": "HMI bezel",
      "primitives": [
        {
          "attributes": {
            "POSITION": 96,
            "NORMAL": 97,
            "TEXCOORD_0": 98
          },
          "indices": 99,
          "material": 0
        }
      ]
    },
    {
      "name": "PLC operator screen",
      "primitives": [
        {
          "attributes": {
            "POSITION": 100,
            "NORMAL": 101,
            "TEXCOORD_0": 102
          },
          "indices": 103,
          "material": 10
        }
      ]
    },
    {
      "name": "Cabinet label",
      "primitives": [
        {
          "attributes": {
            "POSITION": 104,
            "NORMAL": 105,
            "TEXCOORD_0": 106
          },
          "indices": 107,
          "material": 11
        }
      ]
    },
    {
      "name": "Pushbutton collar",
      "primitives": [
        {
          "attributes": {
            "POSITION": 108,
            "NORMAL": 109,
            "TEXCOORD_0": 110
          },
          "indices": 111,
          "material": 1
        }
      ]
    },
    {
      "name": "Pushbutton",
      "primitives": [
        {
          "attributes": {
            "POSITION": 112,
            "NORMAL": 113,
            "TEXCOORD_0": 114
          },
          "indices": 115,
          "material": 7
        }
      ]
    },
    {
      "name": "Pushbutton",
      "primitives": [
        {
          "attributes": {
            "POSITION": 116,
            "NORMAL": 117,
            "TEXCOORD_0": 118
          },
          "indices": 119,
          "material": 4
        }
      ]
    },
    {
      "name": "Pushbutton",
      "primitives": [
        {
          "attributes": {
            "POSITION": 120,
            "NORMAL": 121,
            "TEXCOORD_0": 122
          },
          "indices": 123,
          "material": 8
        }
      ]
    },
    {
      "name": "Door handle",
      "primitives": [
        {
          "attributes": {
            "POSITION": 124,
            "NORMAL": 125,
            "TEXCOORD_0": 126
          },
          "indices": 127,
          "material": 1
        }
      ]
    },
    {
      "name": "Cabinet foot",
      "primitives": [
        {
          "attributes": {
            "POSITION": 128,
            "NORMAL": 129,
            "TEXCOORD_0": 130
          },
          "indices": 131,
          "material": 2
        }
      ]
    },
    {
      "name": "Cabinet support",
      "primitives": [
        {
          "attributes": {
            "POSITION": 132,
            "NORMAL": 133,
            "TEXCOORD_0": 134
          },
          "indices": 135,
          "material": 0
        }
      ]
    },
    {
      "name": "Infeed nose",
      "primitives": [
        {
          "attributes": {
            "POSITION": 136,
            "NORMAL": 137,
            "TEXCOORD_0": 138
          },
          "indices": 139,
          "material": 1
        }
      ]
    },
    {
      "name": "Yellow end marker",
      "primitives": [
        {
          "attributes": {
            "POSITION": 140,
            "NORMAL": 141,
            "TEXCOORD_0": 142
          },
          "indices": 143,
          "material": 4
        }
      ]
    },
    {
      "name": "Belt seam",
      "primitives": [
        {
          "attributes": {
            "POSITION": 144,
            "NORMAL": 145,
            "TEXCOORD_0": 146
          },
          "indices": 147,
          "material": 2
        }
      ]
    },
    {
      "name": "Motor support shelf",
      "primitives": [
        {
          "attributes": {
            "POSITION": 148,
            "NORMAL": 149,
            "TEXCOORD_0": 150
          },
          "indices": 151,
          "material": 1
        }
      ]
    },
    {
      "name": "Motor support web",
      "primitives": [
        {
          "attributes": {
            "POSITION": 152,
            "NORMAL": 153,
            "TEXCOORD_0": 154
          },
          "indices": 155,
          "material": 1
        }
      ]
    },
    {
      "name": "Cable harness",
      "primitives": [
        {
          "attributes": {
            "POSITION": 156,
            "NORMAL": 157,
            "TEXCOORD_0": 158
          },
          "indices": 159,
          "material": 2
        }
      ]
    },
    {
      "name": "Cable harness",
      "primitives": [
        {
          "attributes": {
            "POSITION": 160,
            "NORMAL": 161,
            "TEXCOORD_0": 162
          },
          "indices": 163,
          "material": 2
        }
      ]
    },
    {
      "name": "Cable harness",
      "primitives": [
        {
          "attributes": {
            "POSITION": 164,
            "NORMAL": 165,
            "TEXCOORD_0": 166
          },
          "indices": 167,
          "material": 2
        }
      ]
    },
    {
      "name": "Pneumatic supply",
      "primitives": [
        {
          "attributes": {
            "POSITION": 168,
            "NORMAL": 169,
            "TEXCOORD_0": 170
          },
          "indices": 171,
          "material": 14
        }
      ]
    },
    {
      "name": "Pneumatic supply",
      "primitives": [
        {
          "attributes": {
            "POSITION": 172,
            "NORMAL": 173,
            "TEXCOORD_0": 174
          },
          "indices": 175,
          "material": 14
        }
      ]
    },
    {
      "name": "Pneumatic supply",
      "primitives": [
        {
          "attributes": {
            "POSITION": 176,
            "NORMAL": 177,
            "TEXCOORD_0": 178
          },
          "indices": 179,
          "material": 14
        }
      ]
    }
  ],
  "materials": [
    {
      "name": "Satin machined aluminium",
      "pbrMetallicRoughness": {
        "baseColorFactor": [
          0.72,
          0.76,
          0.79,
          1
        ],
        "metallicFactor": 0.88,
        "roughnessFactor": 0.25,
        "baseColorTexture": {
          "index": 0
        }
      },
      "normalTexture": {
        "index": 2,
        "scale": 0.35
      }
    },
    {
      "name": "Brushed stainless steel",
      "pbrMetallicRoughness": {
        "baseColorFactor": [
          0.72,
          0.76,
          0.81,
          1
        ],
        "metallicFactor": 0.96,
        "roughnessFactor": 0.19
      }
    },
    {
      "name": "Graphite powder coat",
      "pbrMetallicRoughness": {
        "baseColorFactor": [
          0.035,
          0.047,
          0.06,
          1
        ],
        "metallicFactor": 0.28,
        "roughnessFactor": 0.44
      }
    },
    {
      "name": "Deep teal enclosure",
      "pbrMetallicRoughness": {
        "baseColorFactor": [
          0.035,
          0.22,
          0.245,
          1
        ],
        "metallicFactor": 0.3,
        "roughnessFactor": 0.31
      }
    },
    {
      "name": "Safety yellow",
      "pbrMetallicRoughness": {
        "baseColorFactor": [
          0.95,
          0.57,
          0.035,
          1
        ],
        "metallicFactor": 0.08,
        "roughnessFactor": 0.37
      }
    },
    {
      "name": "Textured conveyor rubber",
      "pbrMetallicRoughness": {
        "baseColorFactor": [
          1,
          1,
          1,
          1
        ],
        "metallicFactor": 0,
        "roughnessFactor": 0.79,
        "baseColorTexture": {
          "index": 1
        }
      }
    },
    {
      "name": "Product ivory polymer",
      "pbrMetallicRoughness": {
        "baseColorFactor": [
          0.76,
          0.75,
          0.64,
          1
        ],
        "metallicFactor": 0.04,
        "roughnessFactor": 0.36
      }
    },
    {
      "name": "Status green",
      "pbrMetallicRoughness": {
        "baseColorFactor": [
          0.04,
          0.7,
          0.24,
          1
        ],
        "metallicFactor": 0,
        "roughnessFactor": 0.22
      },
      "emissiveFactor": [
        0.02,
        0.35,
        0.08
      ]
    },
    {
      "name": "Alarm red",
      "pbrMetallicRoughness": {
        "baseColorFactor": [
          0.8,
          0.018,
          0.015,
          1
        ],
        "metallicFactor": 0,
        "roughnessFactor": 0.3
      },
      "emissiveFactor": [
        0.3,
        0.003,
        0.002
      ]
    },
    {
      "name": "Protective polycarbonate",
      "pbrMetallicRoughness": {
        "baseColorFactor": [
          0.5,
          0.75,
          0.84,
          0.16
        ],
        "metallicFactor": 0,
        "roughnessFactor": 0.08
      },
      "alphaMode": "BLEND",
      "doubleSided": true
    },
    {
      "name": "Operator display",
      "pbrMetallicRoughness": {
        "baseColorFactor": [
          1,
          1,
          1,
          1
        ],
        "metallicFactor": 0,
        "roughnessFactor": 0.31,
        "baseColorTexture": {
          "index": 4
        }
      },
      "emissiveTexture": {
        "index": 4
      },
      "emissiveFactor": [
        0.3,
        0.3,
        0.3
      ]
    },
    {
      "name": "Identification plate",
      "pbrMetallicRoughness": {
        "baseColorFactor": [
          1,
          1,
          1,
          1
        ],
        "metallicFactor": 0.05,
        "roughnessFactor": 0.45,
        "baseColorTexture": {
          "index": 5
        }
      }
    },
    {
      "name": "Product identification",
      "pbrMetallicRoughness": {
        "baseColorFactor": [
          1,
          1,
          1,
          1
        ],
        "metallicFactor": 0,
        "roughnessFactor": 0.6,
        "baseColorTexture": {
          "index": 6
        }
      }
    },
    {
      "name": "Workshop concrete",
      "pbrMetallicRoughness": {
        "baseColorFactor": [
          1,
          1,
          1,
          1
        ],
        "metallicFactor": 0.03,
        "roughnessFactor": 0.72,
        "baseColorTexture": {
          "index": 3
        }
      }
    },
    {
      "name": "Blue pneumatic tube",
      "pbrMetallicRoughness": {
        "baseColorFactor": [
          0.025,
          0.24,
          0.55,
          1
        ],
        "metallicFactor": 0.02,
        "roughnessFactor": 0.34
      }
    }
  ],
  "images": [
    {
      "uri": "../Textures/CellMetal.png"
    },
    {
      "uri": "../Textures/CellRubber.png"
    },
    {
      "uri": "../Textures/CellNormal.png"
    },
    {
      "uri": "../Textures/CellFloor.png"
    },
    {
      "uri": "../Textures/CellPanel.png"
    },
    {
      "uri": "../Textures/CellLabel.png"
    },
    {
      "uri": "../Textures/ProductLabel.png"
    }
  ],
  "textures": [
    {
      "source": 0,
      "sampler": 0
    },
    {
      "source": 1,
      "sampler": 0
    },
    {
      "source": 2,
      "sampler": 0
    },
    {
      "source": 3,
      "sampler": 0
    },
    {
      "source": 4,
      "sampler": 0
    },
    {
      "source": 5,
      "sampler": 0
    },
    {
      "source": 6,
      "sampler": 0
    }
  ],
  "samplers": [
    {
      "magFilter": 9729,
      "minFilter": 9987,
      "wrapS": 10497,
      "wrapT": 10497
    }
  ],
  "buffers": [
    {
      "uri": "CellConveyor.bin",
      "byteLength": 826560
    }
  ],
  "bufferViews": [
    {
      "buffer": 0,
      "byteOffset": 0,
      "byteLength": 3528,
      "target": 34962
    },
    {
      "buffer": 0,
      "byteOffset": 3528,
      "byteLength": 3528,
      "target": 34962
    },
    {
      "buffer": 0,
      "byteOffset": 7056,
      "byteLength": 2352,
      "target": 34962
    },
    {
      "buffer": 0,
      "byteOffset": 9408,
      "byteLength": 5184,
      "target": 34963
    },
    {
      "buffer": 0,
      "byteOffset": 14592,
      "byteLength": 3528,
      "target": 34962
    },
    {
      "buffer": 0,
      "byteOffset": 18120,
      "byteLength": 3528,
      "target": 34962
    },
    {
      "buffer": 0,
      "byteOffset": 21648,
      "byteLength": 2352,
      "target": 34962
    },
    {
      "buffer": 0,
      "byteOffset": 24000,
      "byteLength": 5184,
      "target": 34963
    },
    {
      "buffer": 0,
      "byteOffset": 29184,
      "byteLength": 3528,
      "target": 34962
    },
    {
      "buffer": 0,
      "byteOffset": 32712,
      "byteLength": 3528,
      "target": 34962
    },
    {
      "buffer": 0,
      "byteOffset": 36240,
      "byteLength": 2352,
      "target": 34962
    },
    {
      "buffer": 0,
      "byteOffset": 38592,
      "byteLength": 5184,
      "target": 34963
    },
    {
      "buffer": 0,
      "byteOffset": 43776,
      "byteLength": 3528,
      "target": 34962
    },
    {
      "buffer": 0,
      "byteOffset": 47304,
      "byteLength": 3528,
      "target": 34962
    },
    {
      "buffer": 0,
      "byteOffset": 50832,
      "byteLength": 2352,
      "target": 34962
    },
    {
      "buffer": 0,
      "byteOffset": 53184,
      "byteLength": 5184,
      "target": 34963
    },
    {
      "buffer": 0,
      "byteOffset": 58368,
      "byteLength": 3528,
      "target": 34962
    },
    {
      "buffer": 0,
      "byteOffset": 61896,
      "byteLength": 3528,
      "target": 34962
    },
    {
      "buffer": 0,
      "byteOffset": 65424,
      "byteLength": 2352,
      "target": 34962
    },
    {
      "buffer": 0,
      "byteOffset": 67776,
      "byteLength": 5184,
      "target": 34963
    },
    {
      "buffer": 0,
      "byteOffset": 72960,
      "byteLength": 6264,
      "target": 34962
    },
    {
      "buffer": 0,
      "byteOffset": 79224,
      "byteLength": 6264,
      "target": 34962
    },
    {
      "buffer": 0,
      "byteOffset": 85488,
      "byteLength": 4176,
      "target": 34962
    },
    {
      "buffer": 0,
      "byteOffset": 89664,
      "byteLength": 9216,
      "target": 34963
    },
    {
      "buffer": 0,
      "byteOffset": 98880,
      "byteLength": 6264,
      "target": 34962
    },
    {
      "buffer": 0,
      "byteOffset": 105144,
      "byteLength": 6264,
      "target": 34962
    },
    {
      "buffer": 0,
      "byteOffset": 111408,
      "byteLength": 4176,
      "target": 34962
    },
    {
      "buffer": 0,
      "byteOffset": 115584,
      "byteLength": 9216,
      "target": 34963
    },
    {
      "buffer": 0,
      "byteOffset": 124800,
      "byteLength": 3528,
      "target": 34962
    },
    {
      "buffer": 0,
      "byteOffset": 128328,
      "byteLength": 3528,
      "target": 34962
    },
    {
      "buffer": 0,
      "byteOffset": 131856,
      "byteLength": 2352,
      "target": 34962
    },
    {
      "buffer": 0,
      "byteOffset": 134208,
      "byteLength": 5184,
      "target": 34963
    },
    {
      "buffer": 0,
      "byteOffset": 139392,
      "byteLength": 6264,
      "target": 34962
    },
    {
      "buffer": 0,
      "byteOffset": 145656,
      "byteLength": 6264,
      "target": 34962
    },
    {
      "buffer": 0,
      "byteOffset": 151920,
      "byteLength": 4176,
      "target": 34962
    },
    {
      "buffer": 0,
      "byteOffset": 156096,
      "byteLength": 9216,
      "target": 34963
    },
    {
      "buffer": 0,
      "byteOffset": 165312,
      "byteLength": 3528,
      "target": 34962
    },
    {
      "buffer": 0,
      "byteOffset": 168840,
      "byteLength": 3528,
      "target": 34962
    },
    {
      "buffer": 0,
      "byteOffset": 172368,
      "byteLength": 2352,
      "target": 34962
    },
    {
      "buffer": 0,
      "byteOffset": 174720,
      "byteLength": 5184,
      "target": 34963
    },
    {
      "buffer": 0,
      "byteOffset": 179904,
      "byteLength": 6264,
      "target": 34962
    },
    {
      "buffer": 0,
      "byteOffset": 186168,
      "byteLength": 6264,
      "target": 34962
    },
    {
      "buffer": 0,
      "byteOffset": 192432,
      "byteLength": 4176,
      "target": 34962
    },
    {
      "buffer": 0,
      "byteOffset": 196608,
      "byteLength": 9216,
      "target": 34963
    },
    {
      "buffer": 0,
      "byteOffset": 205824,
      "byteLength": 6264,
      "target": 34962
    },
    {
      "buffer": 0,
      "byteOffset": 212088,
      "byteLength": 6264,
      "target": 34962
    },
    {
      "buffer": 0,
      "byteOffset": 218352,
      "byteLength": 4176,
      "target": 34962
    },
    {
      "buffer": 0,
      "byteOffset": 222528,
      "byteLength": 9216,
      "target": 34963
    },
    {
      "buffer": 0,
      "byteOffset": 231744,
      "byteLength": 3528,
      "target": 34962
    },
    {
      "buffer": 0,
      "byteOffset": 235272,
      "byteLength": 3528,
      "target": 34962
    },
    {
      "buffer": 0,
      "byteOffset": 238800,
      "byteLength": 2352,
      "target": 34962
    },
    {
      "buffer": 0,
      "byteOffset": 241152,
      "byteLength": 5184,
      "target": 34963
    },
    {
      "buffer": 0,
      "byteOffset": 246336,
      "byteLength": 3528,
      "target": 34962
    },
    {
      "buffer": 0,
      "byteOffset": 249864,
      "byteLength": 3528,
      "target": 34962
    },
    {
      "buffer": 0,
      "byteOffset": 253392,
      "byteLength": 2352,
      "target": 34962
    },
    {
      "buffer": 0,
      "byteOffset": 255744,
      "byteLength": 5184,
      "target": 34963
    },
    {
      "buffer": 0,
      "byteOffset": 260928,
      "byteLength": 3528,
      "target": 34962
    },
    {
      "buffer": 0,
      "byteOffset": 264456,
      "byteLength": 3528,
      "target": 34962
    },
    {
      "buffer": 0,
      "byteOffset": 267984,
      "byteLength": 2352,
      "target": 34962
    },
    {
      "buffer": 0,
      "byteOffset": 270336,
      "byteLength": 5184,
      "target": 34963
    },
    {
      "buffer": 0,
      "byteOffset": 275520,
      "byteLength": 3528,
      "target": 34962
    },
    {
      "buffer": 0,
      "byteOffset": 279048,
      "byteLength": 3528,
      "target": 34962
    },
    {
      "buffer": 0,
      "byteOffset": 282576,
      "byteLength": 2352,
      "target": 34962
    },
    {
      "buffer": 0,
      "byteOffset": 284928,
      "byteLength": 5184,
      "target": 34963
    },
    {
      "buffer": 0,
      "byteOffset": 290112,
      "byteLength": 3528,
      "target": 34962
    },
    {
      "buffer": 0,
      "byteOffset": 293640,
      "byteLength": 3528,
      "target": 34962
    },
    {
      "buffer": 0,
      "byteOffset": 297168,
      "byteLength": 2352,
      "target": 34962
    },
    {
      "buffer": 0,
      "byteOffset": 299520,
      "byteLength": 5184,
      "target": 34963
    },
    {
      "buffer": 0,
      "byteOffset": 304704,
      "byteLength": 3528,
      "target": 34962
    },
    {
      "buffer": 0,
      "byteOffset": 308232,
      "byteLength": 3528,
      "target": 34962
    },
    {
      "buffer": 0,
      "byteOffset": 311760,
      "byteLength": 2352,
      "target": 34962
    },
    {
      "buffer": 0,
      "byteOffset": 314112,
      "byteLength": 5184,
      "target": 34963
    },
    {
      "buffer": 0,
      "byteOffset": 319296,
      "byteLength": 3528,
      "target": 34962
    },
    {
      "buffer": 0,
      "byteOffset": 322824,
      "byteLength": 3528,
      "target": 34962
    },
    {
      "buffer": 0,
      "byteOffset": 326352,
      "byteLength": 2352,
      "target": 34962
    },
    {
      "buffer": 0,
      "byteOffset": 328704,
      "byteLength": 5184,
      "target": 34963
    },
    {
      "buffer": 0,
      "byteOffset": 333888,
      "byteLength": 3528,
      "target": 34962
    },
    {
      "buffer": 0,
      "byteOffset": 337416,
      "byteLength": 3528,
      "target": 34962
    },
    {
      "buffer": 0,
      "byteOffset": 340944,
      "byteLength": 2352,
      "target": 34962
    },
    {
      "buffer": 0,
      "byteOffset": 343296,
      "byteLength": 5184,
      "target": 34963
    },
    {
      "buffer": 0,
      "byteOffset": 348480,
      "byteLength": 3528,
      "target": 34962
    },
    {
      "buffer": 0,
      "byteOffset": 352008,
      "byteLength": 3528,
      "target": 34962
    },
    {
      "buffer": 0,
      "byteOffset": 355536,
      "byteLength": 2352,
      "target": 34962
    },
    {
      "buffer": 0,
      "byteOffset": 357888,
      "byteLength": 5184,
      "target": 34963
    },
    {
      "buffer": 0,
      "byteOffset": 363072,
      "byteLength": 3528,
      "target": 34962
    },
    {
      "buffer": 0,
      "byteOffset": 366600,
      "byteLength": 3528,
      "target": 34962
    },
    {
      "buffer": 0,
      "byteOffset": 370128,
      "byteLength": 2352,
      "target": 34962
    },
    {
      "buffer": 0,
      "byteOffset": 372480,
      "byteLength": 5184,
      "target": 34963
    },
    {
      "buffer": 0,
      "byteOffset": 377664,
      "byteLength": 3528,
      "target": 34962
    },
    {
      "buffer": 0,
      "byteOffset": 381192,
      "byteLength": 3528,
      "target": 34962
    },
    {
      "buffer": 0,
      "byteOffset": 384720,
      "byteLength": 2352,
      "target": 34962
    },
    {
      "buffer": 0,
      "byteOffset": 387072,
      "byteLength": 5184,
      "target": 34963
    },
    {
      "buffer": 0,
      "byteOffset": 392256,
      "byteLength": 3528,
      "target": 34962
    },
    {
      "buffer": 0,
      "byteOffset": 395784,
      "byteLength": 3528,
      "target": 34962
    },
    {
      "buffer": 0,
      "byteOffset": 399312,
      "byteLength": 2352,
      "target": 34962
    },
    {
      "buffer": 0,
      "byteOffset": 401664,
      "byteLength": 5184,
      "target": 34963
    },
    {
      "buffer": 0,
      "byteOffset": 406848,
      "byteLength": 3528,
      "target": 34962
    },
    {
      "buffer": 0,
      "byteOffset": 410376,
      "byteLength": 3528,
      "target": 34962
    },
    {
      "buffer": 0,
      "byteOffset": 413904,
      "byteLength": 2352,
      "target": 34962
    },
    {
      "buffer": 0,
      "byteOffset": 416256,
      "byteLength": 5184,
      "target": 34963
    },
    {
      "buffer": 0,
      "byteOffset": 421440,
      "byteLength": 3528,
      "target": 34962
    },
    {
      "buffer": 0,
      "byteOffset": 424968,
      "byteLength": 3528,
      "target": 34962
    },
    {
      "buffer": 0,
      "byteOffset": 428496,
      "byteLength": 2352,
      "target": 34962
    },
    {
      "buffer": 0,
      "byteOffset": 430848,
      "byteLength": 5184,
      "target": 34963
    },
    {
      "buffer": 0,
      "byteOffset": 436032,
      "byteLength": 3528,
      "target": 34962
    },
    {
      "buffer": 0,
      "byteOffset": 439560,
      "byteLength": 3528,
      "target": 34962
    },
    {
      "buffer": 0,
      "byteOffset": 443088,
      "byteLength": 2352,
      "target": 34962
    },
    {
      "buffer": 0,
      "byteOffset": 445440,
      "byteLength": 5184,
      "target": 34963
    },
    {
      "buffer": 0,
      "byteOffset": 450624,
      "byteLength": 6264,
      "target": 34962
    },
    {
      "buffer": 0,
      "byteOffset": 456888,
      "byteLength": 6264,
      "target": 34962
    },
    {
      "buffer": 0,
      "byteOffset": 463152,
      "byteLength": 4176,
      "target": 34962
    },
    {
      "buffer": 0,
      "byteOffset": 467328,
      "byteLength": 9216,
      "target": 34963
    },
    {
      "buffer": 0,
      "byteOffset": 476544,
      "byteLength": 6264,
      "target": 34962
    },
    {
      "buffer": 0,
      "byteOffset": 482808,
      "byteLength": 6264,
      "target": 34962
    },
    {
      "buffer": 0,
      "byteOffset": 489072,
      "byteLength": 4176,
      "target": 34962
    },
    {
      "buffer": 0,
      "byteOffset": 493248,
      "byteLength": 9216,
      "target": 34963
    },
    {
      "buffer": 0,
      "byteOffset": 502464,
      "byteLength": 6264,
      "target": 34962
    },
    {
      "buffer": 0,
      "byteOffset": 508728,
      "byteLength": 6264,
      "target": 34962
    },
    {
      "buffer": 0,
      "byteOffset": 514992,
      "byteLength": 4176,
      "target": 34962
    },
    {
      "buffer": 0,
      "byteOffset": 519168,
      "byteLength": 9216,
      "target": 34963
    },
    {
      "buffer": 0,
      "byteOffset": 528384,
      "byteLength": 6264,
      "target": 34962
    },
    {
      "buffer": 0,
      "byteOffset": 534648,
      "byteLength": 6264,
      "target": 34962
    },
    {
      "buffer": 0,
      "byteOffset": 540912,
      "byteLength": 4176,
      "target": 34962
    },
    {
      "buffer": 0,
      "byteOffset": 545088,
      "byteLength": 9216,
      "target": 34963
    },
    {
      "buffer": 0,
      "byteOffset": 554304,
      "byteLength": 3528,
      "target": 34962
    },
    {
      "buffer": 0,
      "byteOffset": 557832,
      "byteLength": 3528,
      "target": 34962
    },
    {
      "buffer": 0,
      "byteOffset": 561360,
      "byteLength": 2352,
      "target": 34962
    },
    {
      "buffer": 0,
      "byteOffset": 563712,
      "byteLength": 5184,
      "target": 34963
    },
    {
      "buffer": 0,
      "byteOffset": 568896,
      "byteLength": 3528,
      "target": 34962
    },
    {
      "buffer": 0,
      "byteOffset": 572424,
      "byteLength": 3528,
      "target": 34962
    },
    {
      "buffer": 0,
      "byteOffset": 575952,
      "byteLength": 2352,
      "target": 34962
    },
    {
      "buffer": 0,
      "byteOffset": 578304,
      "byteLength": 5184,
      "target": 34963
    },
    {
      "buffer": 0,
      "byteOffset": 583488,
      "byteLength": 3528,
      "target": 34962
    },
    {
      "buffer": 0,
      "byteOffset": 587016,
      "byteLength": 3528,
      "target": 34962
    },
    {
      "buffer": 0,
      "byteOffset": 590544,
      "byteLength": 2352,
      "target": 34962
    },
    {
      "buffer": 0,
      "byteOffset": 592896,
      "byteLength": 5184,
      "target": 34963
    },
    {
      "buffer": 0,
      "byteOffset": 598080,
      "byteLength": 3528,
      "target": 34962
    },
    {
      "buffer": 0,
      "byteOffset": 601608,
      "byteLength": 3528,
      "target": 34962
    },
    {
      "buffer": 0,
      "byteOffset": 605136,
      "byteLength": 2352,
      "target": 34962
    },
    {
      "buffer": 0,
      "byteOffset": 607488,
      "byteLength": 5184,
      "target": 34963
    },
    {
      "buffer": 0,
      "byteOffset": 612672,
      "byteLength": 3528,
      "target": 34962
    },
    {
      "buffer": 0,
      "byteOffset": 616200,
      "byteLength": 3528,
      "target": 34962
    },
    {
      "buffer": 0,
      "byteOffset": 619728,
      "byteLength": 2352,
      "target": 34962
    },
    {
      "buffer": 0,
      "byteOffset": 622080,
      "byteLength": 5184,
      "target": 34963
    },
    {
      "buffer": 0,
      "byteOffset": 627264,
      "byteLength": 3528,
      "target": 34962
    },
    {
      "buffer": 0,
      "byteOffset": 630792,
      "byteLength": 3528,
      "target": 34962
    },
    {
      "buffer": 0,
      "byteOffset": 634320,
      "byteLength": 2352,
      "target": 34962
    },
    {
      "buffer": 0,
      "byteOffset": 636672,
      "byteLength": 5184,
      "target": 34963
    },
    {
      "buffer": 0,
      "byteOffset": 641856,
      "byteLength": 3528,
      "target": 34962
    },
    {
      "buffer": 0,
      "byteOffset": 645384,
      "byteLength": 3528,
      "target": 34962
    },
    {
      "buffer": 0,
      "byteOffset": 648912,
      "byteLength": 2352,
      "target": 34962
    },
    {
      "buffer": 0,
      "byteOffset": 651264,
      "byteLength": 5184,
      "target": 34963
    },
    {
      "buffer": 0,
      "byteOffset": 656448,
      "byteLength": 3528,
      "target": 34962
    },
    {
      "buffer": 0,
      "byteOffset": 659976,
      "byteLength": 3528,
      "target": 34962
    },
    {
      "buffer": 0,
      "byteOffset": 663504,
      "byteLength": 2352,
      "target": 34962
    },
    {
      "buffer": 0,
      "byteOffset": 665856,
      "byteLength": 5184,
      "target": 34963
    },
    {
      "buffer": 0,
      "byteOffset": 671040,
      "byteLength": 6264,
      "target": 34962
    },
    {
      "buffer": 0,
      "byteOffset": 677304,
      "byteLength": 6264,
      "target": 34962
    },
    {
      "buffer": 0,
      "byteOffset": 683568,
      "byteLength": 4176,
      "target": 34962
    },
    {
      "buffer": 0,
      "byteOffset": 687744,
      "byteLength": 9216,
      "target": 34963
    },
    {
      "buffer": 0,
      "byteOffset": 696960,
      "byteLength": 6264,
      "target": 34962
    },
    {
      "buffer": 0,
      "byteOffset": 703224,
      "byteLength": 6264,
      "target": 34962
    },
    {
      "buffer": 0,
      "byteOffset": 709488,
      "byteLength": 4176,
      "target": 34962
    },
    {
      "buffer": 0,
      "byteOffset": 713664,
      "byteLength": 9216,
      "target": 34963
    },
    {
      "buffer": 0,
      "byteOffset": 722880,
      "byteLength": 6264,
      "target": 34962
    },
    {
      "buffer": 0,
      "byteOffset": 729144,
      "byteLength": 6264,
      "target": 34962
    },
    {
      "buffer": 0,
      "byteOffset": 735408,
      "byteLength": 4176,
      "target": 34962
    },
    {
      "buffer": 0,
      "byteOffset": 739584,
      "byteLength": 9216,
      "target": 34963
    },
    {
      "buffer": 0,
      "byteOffset": 748800,
      "byteLength": 6264,
      "target": 34962
    },
    {
      "buffer": 0,
      "byteOffset": 755064,
      "byteLength": 6264,
      "target": 34962
    },
    {
      "buffer": 0,
      "byteOffset": 761328,
      "byteLength": 4176,
      "target": 34962
    },
    {
      "buffer": 0,
      "byteOffset": 765504,
      "byteLength": 9216,
      "target": 34963
    },
    {
      "buffer": 0,
      "byteOffset": 774720,
      "byteLength": 6264,
      "target": 34962
    },
    {
      "buffer": 0,
      "byteOffset": 780984,
      "byteLength": 6264,
      "target": 34962
    },
    {
      "buffer": 0,
      "byteOffset": 787248,
      "byteLength": 4176,
      "target": 34962
    },
    {
      "buffer": 0,
      "byteOffset": 791424,
      "byteLength": 9216,
      "target": 34963
    },
    {
      "buffer": 0,
      "byteOffset": 800640,
      "byteLength": 6264,
      "target": 34962
    },
    {
      "buffer": 0,
      "byteOffset": 806904,
      "byteLength": 6264,
      "target": 34962
    },
    {
      "buffer": 0,
      "byteOffset": 813168,
      "byteLength": 4176,
      "target": 34962
    },
    {
      "buffer": 0,
      "byteOffset": 817344,
      "byteLength": 9216,
      "target": 34963
    }
  ],
  "accessors": [
    {
      "bufferView": 0,
      "componentType": 5126,
      "count": 294,
      "type": "VEC3",
      "min": [
        -1.74,
        -0.0225,
        -0.29
      ],
      "max": [
        1.74,
        0.0225,
        0.29
      ]
    },
    {
      "bufferView": 1,
      "componentType": 5126,
      "count": 294,
      "type": "VEC3",
      "min": [
        -1.0,
        -1.0,
        -1.0
      ],
      "max": [
        1.0,
        1.0,
        1.0
      ]
    },
    {
      "bufferView": 2,
      "componentType": 5126,
      "count": 294,
      "type": "VEC2"
    },
    {
      "bufferView": 3,
      "componentType": 5125,
      "count": 1296,
      "type": "SCALAR"
    },
    {
      "bufferView": 4,
      "componentType": 5126,
      "count": 294,
      "type": "VEC3",
      "min": [
        -1.8,
        -0.085,
        -0.0325
      ],
      "max": [
        1.8,
        0.085,
        0.0325
      ]
    },
    {
      "bufferView": 5,
      "componentType": 5126,
      "count": 294,
      "type": "VEC3",
      "min": [
        -1.0,
        -1.0,
        -1.0
      ],
      "max": [
        1.0,
        1.0,
        1.0
      ]
    },
    {
      "bufferView": 6,
      "componentType": 5126,
      "count": 294,
      "type": "VEC2"
    },
    {
      "bufferView": 7,
      "componentType": 5125,
      "count": 1296,
      "type": "SCALAR"
    },
    {
      "bufferView": 8,
      "componentType": 5126,
      "count": 294,
      "type": "VEC3",
      "min": [
        -1.7,
        -0.0275,
        -0.0115
      ],
      "max": [
        1.7,
        0.0275,
        0.0115
      ]
    },
    {
      "bufferView": 9,
      "componentType": 5126,
      "count": 294,
      "type": "VEC3",
      "min": [
        -1.0,
        -1.0,
        -1.0
      ],
      "max": [
        1.0,
        1.0,
        1.0
      ]
    },
    {
      "bufferView": 10,
      "componentType": 5126,
      "count": 294,
      "type": "VEC2"
    },
    {
      "bufferView": 11,
      "componentType": 5125,
      "count": 1296,
      "type": "SCALAR"
    },
    {
      "bufferView": 12,
      "componentType": 5126,
      "count": 294,
      "type": "VEC3",
      "min": [
        -1.71,
        -0.006,
        -0.0035
      ],
      "max": [
        1.71,
        0.006,
        0.0035
      ]
    },
    {
      "bufferView": 13,
      "componentType": 5126,
      "count": 294,
      "type": "VEC3",
      "min": [
        -1.0,
        -1.0,
        -1.0
      ],
      "max": [
        1.0,
        1.0,
        1.0
      ]
    },
    {
      "bufferView": 14,
      "componentType": 5126,
      "count": 294,
      "type": "VEC2"
    },
    {
      "bufferView": 15,
      "componentType": 5125,
      "count": 1296,
      "type": "SCALAR"
    },
    {
      "bufferView": 16,
      "componentType": 5126,
      "count": 294,
      "type": "VEC3",
      "min": [
        -0.0175,
        -0.05,
        -0.03
      ],
      "max": [
        0.0175,
        0.05,
        0.03
      ]
    },
    {
      "bufferView": 17,
      "componentType": 5126,
      "count": 294,
      "type": "VEC3",
      "min": [
        -1.0,
        -1.0,
        -1.0
      ],
      "max": [
        1.0,
        1.0,
        1.0
      ]
    },
    {
      "bufferView": 18,
      "componentType": 5126,
      "count": 294,
      "type": "VEC2"
    },
    {
      "bufferView": 19,
      "componentType": 5125,
      "count": 1296,
      "type": "SCALAR"
    },
    {
      "bufferView": 20,
      "componentType": 5126,
      "count": 522,
      "type": "VEC3",
      "min": [
        -0.005,
        -0.009,
        -0.009
      ],
      "max": [
        0.005,
        0.009,
        0.009
      ]
    },
    {
      "bufferView": 21,
      "componentType": 5126,
      "count": 522,
      "type": "VEC3",
      "min": [
        -1,
        -1.0,
        -1.0
      ],
      "max": [
        1,
        1.0,
        1.0
      ]
    },
    {
      "bufferView": 22,
      "componentType": 5126,
      "count": 522,
      "type": "VEC2"
    },
    {
      "bufferView": 23,
      "componentType": 5125,
      "count": 2304,
      "type": "SCALAR"
    },
    {
      "bufferView": 24,
      "componentType": 5126,
      "count": 522,
      "type": "VEC3",
      "min": [
        -0.32,
        -0.055,
        -0.055
      ],
      "max": [
        0.32,
        0.055,
        0.055
      ]
    },
    {
      "bufferView": 25,
      "componentType": 5126,
      "count": 522,
      "type": "VEC3",
      "min": [
        -1,
        -1.0,
        -1.0
      ],
      "max": [
        1,
        1.0,
        1.0
      ]
    },
    {
      "bufferView": 26,
      "componentType": 5126,
      "count": 522,
      "type": "VEC2"
    },
    {
      "bufferView": 27,
      "componentType": 5125,
      "count": 2304,
      "type": "SCALAR"
    },
    {
      "bufferView": 28,
      "componentType": 5126,
      "count": 294,
      "type": "VEC3",
      "min": [
        -0.075,
        -0.06,
        -0.035
      ],
      "max": [
        0.075,
        0.06,
        0.035
      ]
    },
    {
      "bufferView": 29,
      "componentType": 5126,
      "count": 294,
      "type": "VEC3",
      "min": [
        -1.0,
        -1.0,
        -1.0
      ],
      "max": [
        1.0,
        1.0,
        1.0
      ]
    },
    {
      "bufferView": 30,
      "componentType": 5126,
      "count": 294,
      "type": "VEC2"
    },
    {
      "bufferView": 31,
      "componentType": 5125,
      "count": 1296,
      "type": "SCALAR"
    },
    {
      "bufferView": 32,
      "componentType": 5126,
      "count": 522,
      "type": "VEC3",
      "min": [
        -0.0125,
        -0.03,
        -0.03
      ],
      "max": [
        0.0125,
        0.03,
        0.03
      ]
    },
    {
      "bufferView": 33,
      "componentType": 5126,
      "count": 522,
      "type": "VEC3",
      "min": [
        -1,
        -1.0,
        -1.0
      ],
      "max": [
        1,
        1.0,
        1.0
      ]
    },
    {
      "bufferView": 34,
      "componentType": 5126,
      "count": 522,
      "type": "VEC2"
    },
    {
      "bufferView": 35,
      "componentType": 5125,
      "count": 2304,
      "type": "SCALAR"
    },
    {
      "bufferView": 36,
      "componentType": 5126,
      "count": 294,
      "type": "VEC3",
      "min": [
        -0.0275,
        -0.29,
        -0.0275
      ],
      "max": [
        0.0275,
        0.29,
        0.0275
      ]
    },
    {
      "bufferView": 37,
      "componentType": 5126,
      "count": 294,
      "type": "VEC3",
      "min": [
        -1.0,
        -1.0,
        -1.0
      ],
      "max": [
        1.0,
        1.0,
        1.0
      ]
    },
    {
      "bufferView": 38,
      "componentType": 5126,
      "count": 294,
      "type": "VEC2"
    },
    {
      "bufferView": 39,
      "componentType": 5125,
      "count": 1296,
      "type": "SCALAR"
    },
    {
      "bufferView": 40,
      "componentType": 5126,
      "count": 522,
      "type": "VEC3",
      "min": [
        -0.015,
        -0.0525,
        -0.05249999999999999
      ],
      "max": [
        0.015,
        0.0525,
        0.05249999999999999
      ]
    },
    {
      "bufferView": 41,
      "componentType": 5126,
      "count": 522,
      "type": "VEC3",
      "min": [
        -1,
        -1.0,
        -1.0
      ],
      "max": [
        1,
        1.0,
        1.0
      ]
    },
    {
      "bufferView": 42,
      "componentType": 5126,
      "count": 522,
      "type": "VEC2"
    },
    {
      "bufferView": 43,
      "componentType": 5125,
      "count": 2304,
      "type": "SCALAR"
    },
    {
      "bufferView": 44,
      "componentType": 5126,
      "count": 522,
      "type": "VEC3",
      "min": [
        -0.05,
        -0.0135,
        -0.0135
      ],
      "max": [
        0.05,
        0.0135,
        0.0135
      ]
    },
    {
      "bufferView": 45,
      "componentType": 5126,
      "count": 522,
      "type": "VEC3",
      "min": [
        -1,
        -1.0,
        -1.0
      ],
      "max": [
        1,
        1.0,
        1.0
      ]
    },
    {
      "bufferView": 46,
      "componentType": 5126,
      "count": 522,
      "type": "VEC2"
    },
    {
      "bufferView": 47,
      "componentType": 5125,
      "count": 2304,
      "type": "SCALAR"
    },
    {
      "bufferView": 48,
      "componentType": 5126,
      "count": 294,
      "type": "VEC3",
      "min": [
        -0.0275,
        -0.025,
        -0.325
      ],
      "max": [
        0.0275,
        0.025,
        0.325
      ]
    },
    {
      "bufferView": 49,
      "componentType": 5126,
      "count": 294,
      "type": "VEC3",
      "min": [
        -1.0,
        -1.0,
        -1.0
      ],
      "max": [
        1.0,
        1.0,
        1.0
      ]
    },
    {
      "bufferView": 50,
      "componentType": 5126,
      "count": 294,
      "type": "VEC2"
    },
    {
      "bufferView": 51,
      "componentType": 5125,
      "count": 1296,
      "type": "SCALAR"
    },
    {
      "bufferView": 52,
      "componentType": 5126,
      "count": 294,
      "type": "VEC3",
      "min": [
        -1.35,
        -0.02,
        -0.02
      ],
      "max": [
        1.35,
        0.02,
        0.02
      ]
    },
    {
      "bufferView": 53,
      "componentType": 5126,
      "count": 294,
      "type": "VEC3",
      "min": [
        -1.0,
        -1.0,
        -1.0
      ],
      "max": [
        1.0,
        1.0,
        1.0
      ]
    },
    {
      "bufferView": 54,
      "componentType": 5126,
      "count": 294,
      "type": "VEC2"
    },
    {
      "bufferView": 55,
      "componentType": 5125,
      "count": 1296,
      "type": "SCALAR"
    },
    {
      "bufferView": 56,
      "componentType": 5126,
      "count": 294,
      "type": "VEC3",
      "min": [
        -0.0375,
        -0.975,
        -0.0375
      ],
      "max": [
        0.0375,
        0.975,
        0.0375
      ]
    },
    {
      "bufferView": 57,
      "componentType": 5126,
      "count": 294,
      "type": "VEC3",
      "min": [
        -1.0,
        -1.0,
        -1.0
      ],
      "max": [
        1.0,
        1.0,
        1.0
      ]
    },
    {
      "bufferView": 58,
      "componentType": 5126,
      "count": 294,
      "type": "VEC2"
    },
    {
      "bufferView": 59,
      "componentType": 5125,
      "count": 1296,
      "type": "SCALAR"
    },
    {
      "bufferView": 60,
      "componentType": 5126,
      "count": 294,
      "type": "VEC3",
      "min": [
        -0.14,
        -0.0225,
        -0.11
      ],
      "max": [
        0.14,
        0.0225,
        0.11
      ]
    },
    {
      "bufferView": 61,
      "componentType": 5126,
      "count": 294,
      "type": "VEC3",
      "min": [
        -1.0,
        -1.0,
        -1.0
      ],
      "max": [
        1.0,
        1.0,
        1.0
      ]
    },
    {
      "bufferView": 62,
      "componentType": 5126,
      "count": 294,
      "type": "VEC2"
    },
    {
      "bufferView": 63,
      "componentType": 5125,
      "count": 1296,
      "type": "SCALAR"
    },
    {
      "bufferView": 64,
      "componentType": 5126,
      "count": 294,
      "type": "VEC3",
      "min": [
        -0.006,
        -0.86,
        -0.0045
      ],
      "max": [
        0.006,
        0.86,
        0.0045
      ]
    },
    {
      "bufferView": 65,
      "componentType": 5126,
      "count": 294,
      "type": "VEC3",
      "min": [
        -1.0,
        -1.0,
        -1.0
      ],
      "max": [
        1.0,
        1.0,
        1.0
      ]
    },
    {
      "bufferView": 66,
      "componentType": 5126,
      "count": 294,
      "type": "VEC2"
    },
    {
      "bufferView": 67,
      "componentType": 5125,
      "count": 1296,
      "type": "SCALAR"
    },
    {
      "bufferView": 68,
      "componentType": 5126,
      "count": 294,
      "type": "VEC3",
      "min": [
        -0.08,
        -0.06,
        -0.56
      ],
      "max": [
        0.08,
        0.06,
        0.56
      ]
    },
    {
      "bufferView": 69,
      "componentType": 5126,
      "count": 294,
      "type": "VEC3",
      "min": [
        -1.0,
        -1.0,
        -1.0
      ],
      "max": [
        1.0,
        1.0,
        1.0
      ]
    },
    {
      "bufferView": 70,
      "componentType": 5126,
      "count": 294,
      "type": "VEC2"
    },
    {
      "bufferView": 71,
      "componentType": 5125,
      "count": 1296,
      "type": "SCALAR"
    },
    {
      "bufferView": 72,
      "componentType": 5126,
      "count": 294,
      "type": "VEC3",
      "min": [
        -0.14,
        -0.03,
        -0.155
      ],
      "max": [
        0.14,
        0.03,
        0.155
      ]
    },
    {
      "bufferView": 73,
      "componentType": 5126,
      "count": 294,
      "type": "VEC3",
      "min": [
        -1.0,
        -1.0,
        -1.0
      ],
      "max": [
        1.0,
        1.0,
        1.0
      ]
    },
    {
      "bufferView": 74,
      "componentType": 5126,
      "count": 294,
      "type": "VEC2"
    },
    {
      "bufferView": 75,
      "componentType": 5125,
      "count": 1296,
      "type": "SCALAR"
    },
    {
      "bufferView": 76,
      "componentType": 5126,
      "count": 294,
      "type": "VEC3",
      "min": [
        -0.5,
        -0.375,
        -0.0045
      ],
      "max": [
        0.5,
        0.375,
        0.0045
      ]
    },
    {
      "bufferView": 77,
      "componentType": 5126,
      "count": 294,
      "type": "VEC3",
      "min": [
        -1.0,
        -1.0,
        -1.0
      ],
      "max": [
        1.0,
        1.0,
        1.0
      ]
    },
    {
      "bufferView": 78,
      "componentType": 5126,
      "count": 294,
      "type": "VEC2"
    },
    {
      "bufferView": 79,
      "componentType": 5125,
      "count": 1296,
      "type": "SCALAR"
    },
    {
      "bufferView": 80,
      "componentType": 5126,
      "count": 294,
      "type": "VEC3",
      "min": [
        -0.009,
        -0.385,
        -0.009
      ],
      "max": [
        0.009,
        0.385,
        0.009
      ]
    },
    {
      "bufferView": 81,
      "componentType": 5126,
      "count": 294,
      "type": "VEC3",
      "min": [
        -1.0,
        -1.0,
        -1.0
      ],
      "max": [
        1.0,
        1.0,
        1.0
      ]
    },
    {
      "bufferView": 82,
      "componentType": 5126,
      "count": 294,
      "type": "VEC2"
    },
    {
      "bufferView": 83,
      "componentType": 5125,
      "count": 1296,
      "type": "SCALAR"
    },
    {
      "bufferView": 84,
      "componentType": 5126,
      "count": 294,
      "type": "VEC3",
      "min": [
        -0.51,
        -0.01,
        -0.01
      ],
      "max": [
        0.51,
        0.01,
        0.01
      ]
    },
    {
      "bufferView": 85,
      "componentType": 5126,
      "count": 294,
      "type": "VEC3",
      "min": [
        -1.0,
        -1.0,
        -1.0
      ],
      "max": [
        1.0,
        1.0,
        1.0
      ]
    },
    {
      "bufferView": 86,
      "componentType": 5126,
      "count": 294,
      "type": "VEC2"
    },
    {
      "bufferView": 87,
      "componentType": 5125,
      "count": 1296,
      "type": "SCALAR"
    },
    {
      "bufferView": 88,
      "componentType": 5126,
      "count": 294,
      "type": "VEC3",
      "min": [
        -0.285,
        -0.37,
        -0.12
      ],
      "max": [
        0.285,
        0.37,
        0.12
      ]
    },
    {
      "bufferView": 89,
      "componentType": 5126,
      "count": 294,
      "type": "VEC3",
      "min": [
        -1.0,
        -1.0,
        -1.0
      ],
      "max": [
        1.0,
        1.0,
        1.0
      ]
    },
    {
      "bufferView": 90,
      "componentType": 5126,
      "count": 294,
      "type": "VEC2"
    },
    {
      "bufferView": 91,
      "componentType": 5125,
      "count": 1296,
      "type": "SCALAR"
    },
    {
      "bufferView": 92,
      "componentType": 5126,
      "count": 294,
      "type": "VEC3",
      "min": [
        -0.26,
        -0.33,
        -0.009
      ],
      "max": [
        0.26,
        0.33,
        0.009
      ]
    },
    {
      "bufferView": 93,
      "componentType": 5126,
      "count": 294,
      "type": "VEC3",
      "min": [
        -1.0,
        -1.0,
        -1.0
      ],
      "max": [
        1.0,
        1.0,
        1.0
      ]
    },
    {
      "bufferView": 94,
      "componentType": 5126,
      "count": 294,
      "type": "VEC2"
    },
    {
      "bufferView": 95,
      "componentType": 5125,
      "count": 1296,
      "type": "SCALAR"
    },
    {
      "bufferView": 96,
      "componentType": 5126,
      "count": 294,
      "type": "VEC3",
      "min": [
        -0.155,
        -0.095,
        -0.010500000000000002
      ],
      "max": [
        0.155,
        0.095,
        0.010500000000000002
      ]
    },
    {
      "bufferView": 97,
      "componentType": 5126,
      "count": 294,
      "type": "VEC3",
      "min": [
        -1.0,
        -1.0,
        -1.0
      ],
      "max": [
        1.0,
        1.0,
        1.0
      ]
    },
    {
      "bufferView": 98,
      "componentType": 5126,
      "count": 294,
      "type": "VEC2"
    },
    {
      "bufferView": 99,
      "componentType": 5125,
      "count": 1296,
      "type": "SCALAR"
    },
    {
      "bufferView": 100,
      "componentType": 5126,
      "count": 294,
      "type": "VEC3",
      "min": [
        -0.1385,
        -0.0725,
        -0.0015
      ],
      "max": [
        0.1385,
        0.0725,
        0.0015
      ]
    },
    {
      "bufferView": 101,
      "componentType": 5126,
      "count": 294,
      "type": "VEC3",
      "min": [
        -1.0,
        -1.0,
        -1.0
      ],
      "max": [
        1.0,
        1.0,
        1.0
      ]
    },
    {
      "bufferView": 102,
      "componentType": 5126,
      "count": 294,
      "type": "VEC2"
    },
    {
      "bufferView": 103,
      "componentType": 5125,
      "count": 1296,
      "type": "SCALAR"
    },
    {
      "bufferView": 104,
      "componentType": 5126,
      "count": 294,
      "type": "VEC3",
      "min": [
        -0.145,
        -0.035,
        -0.0015
      ],
      "max": [
        0.145,
        0.035,
        0.0015
      ]
    },
    {
      "bufferView": 105,
      "componentType": 5126,
      "count": 294,
      "type": "VEC3",
      "min": [
        -1.0,
        -1.0,
        -1.0
      ],
      "max": [
        1.0,
        1.0,
        1.0
      ]
    },
    {
      "bufferView": 106,
      "componentType": 5126,
      "count": 294,
      "type": "VEC2"
    },
    {
      "bufferView": 107,
      "componentType": 5125,
      "count": 1296,
      "type": "SCALAR"
    },
    {
      "bufferView": 108,
      "componentType": 5126,
      "count": 522,
      "type": "VEC3",
      "min": [
        -0.011,
        -0.021,
        -0.021
      ],
      "max": [
        0.011,
        0.021,
        0.021
      ]
    },
    {
      "bufferView": 109,
      "componentType": 5126,
      "count": 522,
      "type": "VEC3",
      "min": [
        -1,
        -1.0,
        -1.0
      ],
      "max": [
        1,
        1.0,
        1.0
      ]
    },
    {
      "bufferView": 110,
      "componentType": 5126,
      "count": 522,
      "type": "VEC2"
    },
    {
      "bufferView": 111,
      "componentType": 5125,
      "count": 2304,
      "type": "SCALAR"
    },
    {
      "bufferView": 112,
      "componentType": 5126,
      "count": 522,
      "type": "VEC3",
      "min": [
        -0.006,
        -0.014,
        -0.014000000000000002
      ],
      "max": [
        0.006,
        0.014,
        0.014000000000000002
      ]
    },
    {
      "bufferView": 113,
      "componentType": 5126,
      "count": 522,
      "type": "VEC3",
      "min": [
        -1,
        -1.0,
        -1.0
      ],
      "max": [
        1,
        1.0,
        1.0
      ]
    },
    {
      "bufferView": 114,
      "componentType": 5126,
      "count": 522,
      "type": "VEC2"
    },
    {
      "bufferView": 115,
      "componentType": 5125,
      "count": 2304,
      "type": "SCALAR"
    },
    {
      "bufferView": 116,
      "componentType": 5126,
      "count": 522,
      "type": "VEC3",
      "min": [
        -0.006,
        -0.014,
        -0.014000000000000002
      ],
      "max": [
        0.006,
        0.014,
        0.014000000000000002
      ]
    },
    {
      "bufferView": 117,
      "componentType": 5126,
      "count": 522,
      "type": "VEC3",
      "min": [
        -1,
        -1.0,
        -1.0
      ],
      "max": [
        1,
        1.0,
        1.0
      ]
    },
    {
      "bufferView": 118,
      "componentType": 5126,
      "count": 522,
      "type": "VEC2"
    },
    {
      "bufferView": 119,
      "componentType": 5125,
      "count": 2304,
      "type": "SCALAR"
    },
    {
      "bufferView": 120,
      "componentType": 5126,
      "count": 522,
      "type": "VEC3",
      "min": [
        -0.006,
        -0.014,
        -0.014000000000000002
      ],
      "max": [
        0.006,
        0.014,
        0.014000000000000002
      ]
    },
    {
      "bufferView": 121,
      "componentType": 5126,
      "count": 522,
      "type": "VEC3",
      "min": [
        -1,
        -1.0,
        -1.0
      ],
      "max": [
        1,
        1.0,
        1.0
      ]
    },
    {
      "bufferView": 122,
      "componentType": 5126,
      "count": 522,
      "type": "VEC2"
    },
    {
      "bufferView": 123,
      "componentType": 5125,
      "count": 2304,
      "type": "SCALAR"
    },
    {
      "bufferView": 124,
      "componentType": 5126,
      "count": 294,
      "type": "VEC3",
      "min": [
        -0.009,
        -0.085,
        -0.009
      ],
      "max": [
        0.009,
        0.085,
        0.009
      ]
    },
    {
      "bufferView": 125,
      "componentType": 5126,
      "count": 294,
      "type": "VEC3",
      "min": [
        -1.0,
        -1.0,
        -1.0
      ],
      "max": [
        1.0,
        1.0,
        1.0
      ]
    },
    {
      "bufferView": 126,
      "componentType": 5126,
      "count": 294,
      "type": "VEC2"
    },
    {
      "bufferView": 127,
      "componentType": 5125,
      "count": 1296,
      "type": "SCALAR"
    },
    {
      "bufferView": 128,
      "componentType": 5126,
      "count": 294,
      "type": "VEC3",
      "min": [
        -0.0375,
        -0.0075,
        -0.0375
      ],
      "max": [
        0.0375,
        0.0075,
        0.0375
      ]
    },
    {
      "bufferView": 129,
      "componentType": 5126,
      "count": 294,
      "type": "VEC3",
      "min": [
        -1.0,
        -1.0,
        -1.0
      ],
      "max": [
        1.0,
        1.0,
        1.0
      ]
    },
    {
      "bufferView": 130,
      "componentType": 5126,
      "count": 294,
      "type": "VEC2"
    },
    {
      "bufferView": 131,
      "componentType": 5125,
      "count": 1296,
      "type": "SCALAR"
    },
    {
      "bufferView": 132,
      "componentType": 5126,
      "count": 294,
      "type": "VEC3",
      "min": [
        -0.017,
        -0.1,
        -0.017
      ],
      "max": [
        0.017,
        0.1,
        0.017
      ]
    },
    {
      "bufferView": 133,
      "componentType": 5126,
      "count": 294,
      "type": "VEC3",
      "min": [
        -1.0,
        -1.0,
        -1.0
      ],
      "max": [
        1.0,
        1.0,
        1.0
      ]
    },
    {
      "bufferView": 134,
      "componentType": 5126,
      "count": 294,
      "type": "VEC2"
    },
    {
      "bufferView": 135,
      "componentType": 5125,
      "count": 1296,
      "type": "SCALAR"
    },
    {
      "bufferView": 136,
      "componentType": 5126,
      "count": 294,
      "type": "VEC3",
      "min": [
        -0.115,
        -0.0225,
        -0.02
      ],
      "max": [
        0.115,
        0.0225,
        0.02
      ]
    },
    {
      "bufferView": 137,
      "componentType": 5126,
      "count": 294,
      "type": "VEC3",
      "min": [
        -1.0,
        -1.0,
        -1.0
      ],
      "max": [
        1.0,
        1.0,
        1.0
      ]
    },
    {
      "bufferView": 138,
      "componentType": 5126,
      "count": 294,
      "type": "VEC2"
    },
    {
      "bufferView": 139,
      "componentType": 5125,
      "count": 1296,
      "type": "SCALAR"
    },
    {
      "bufferView": 140,
      "componentType": 5126,
      "count": 294,
      "type": "VEC3",
      "min": [
        -0.009,
        -0.006,
        -0.285
      ],
      "max": [
        0.009,
        0.006,
        0.285
      ]
    },
    {
      "bufferView": 141,
      "componentType": 5126,
      "count": 294,
      "type": "VEC3",
      "min": [
        -1.0,
        -1.0,
        -1.0
      ],
      "max": [
        1.0,
        1.0,
        1.0
      ]
    },
    {
      "bufferView": 142,
      "componentType": 5126,
      "count": 294,
      "type": "VEC2"
    },
    {
      "bufferView": 143,
      "componentType": 5125,
      "count": 1296,
      "type": "SCALAR"
    },
    {
      "bufferView": 144,
      "componentType": 5126,
      "count": 294,
      "type": "VEC3",
      "min": [
        -0.0035,
        -0.001,
        -0.2875
      ],
      "max": [
        0.0035,
        0.001,
        0.2875
      ]
    },
    {
      "bufferView": 145,
      "componentType": 5126,
      "count": 294,
      "type": "VEC3",
      "min": [
        -1.0,
        -1.0,
        -1.0
      ],
      "max": [
        1.0,
        1.0,
        1.0
      ]
    },
    {
      "bufferView": 146,
      "componentType": 5126,
      "count": 294,
      "type": "VEC2"
    },
    {
      "bufferView": 147,
      "componentType": 5125,
      "count": 1296,
      "type": "SCALAR"
    },
    {
      "bufferView": 148,
      "componentType": 5126,
      "count": 294,
      "type": "VEC3",
      "min": [
        -0.175,
        -0.02,
        -0.18
      ],
      "max": [
        0.175,
        0.02,
        0.18
      ]
    },
    {
      "bufferView": 149,
      "componentType": 5126,
      "count": 294,
      "type": "VEC3",
      "min": [
        -1.0,
        -1.0,
        -1.0
      ],
      "max": [
        1.0,
        1.0,
        1.0
      ]
    },
    {
      "bufferView": 150,
      "componentType": 5126,
      "count": 294,
      "type": "VEC2"
    },
    {
      "bufferView": 151,
      "componentType": 5125,
      "count": 1296,
      "type": "SCALAR"
    },
    {
      "bufferView": 152,
      "componentType": 5126,
      "count": 294,
      "type": "VEC3",
      "min": [
        -0.04000000000000001,
        -0.07,
        -0.02
      ],
      "max": [
        0.04000000000000001,
        0.07,
        0.02
      ]
    },
    {
      "bufferView": 153,
      "componentType": 5126,
      "count": 294,
      "type": "VEC3",
      "min": [
        -1.0,
        -1.0,
        -1.0
      ],
      "max": [
        1.0,
        1.0,
        1.0
      ]
    },
    {
      "bufferView": 154,
      "componentType": 5126,
      "count": 294,
      "type": "VEC2"
    },
    {
      "bufferView": 155,
      "componentType": 5125,
      "count": 1296,
      "type": "SCALAR"
    },
    {
      "bufferView": 156,
      "componentType": 5126,
      "count": 522,
      "type": "VEC3",
      "min": [
        -0.14142135623730953,
        -0.018,
        -0.018
      ],
      "max": [
        0.14142135623730953,
        0.018,
        0.018
      ]
    },
    {
      "bufferView": 157,
      "componentType": 5126,
      "count": 522,
      "type": "VEC3",
      "min": [
        -1,
        -1.0,
        -1.0
      ],
      "max": [
        1,
        1.0,
        1.0
      ]
    },
    {
      "bufferView": 158,
      "componentType": 5126,
      "count": 522,
      "type": "VEC2"
    },
    {
      "bufferView": 159,
      "componentType": 5125,
      "count": 2304,
      "type": "SCALAR"
    },
    {
      "bufferView": 160,
      "componentType": 5126,
      "count": 522,
      "type": "VEC3",
      "min": [
        -0.76,
        -0.018,
        -0.018
      ],
      "max": [
        0.76,
        0.018,
        0.018
      ]
    },
    {
      "bufferView": 161,
      "componentType": 5126,
      "count": 522,
      "type": "VEC3",
      "min": [
        -1,
        -1.0,
        -1.0
      ],
      "max": [
        1,
        1.0,
        1.0
      ]
    },
    {
      "bufferView": 162,
      "componentType": 5126,
      "count": 522,
      "type": "VEC2"
    },
    {
      "bufferView": 163,
      "componentType": 5125,
      "count": 2304,
      "type": "SCALAR"
    },
    {
      "bufferView": 164,
      "componentType": 5126,
      "count": 522,
      "type": "VEC3",
      "min": [
        -0.3570714214271425,
        -0.018,
        -0.018
      ],
      "max": [
        0.3570714214271425,
        0.018,
        0.018
      ]
    },
    {
      "bufferView": 165,
      "componentType": 5126,
      "count": 522,
      "type": "VEC3",
      "min": [
        -1,
        -1.0,
        -1.0
      ],
      "max": [
        1,
        1.0,
        1.0
      ]
    },
    {
      "bufferView": 166,
      "componentType": 5126,
      "count": 522,
      "type": "VEC2"
    },
    {
      "bufferView": 167,
      "componentType": 5125,
      "count": 2304,
      "type": "SCALAR"
    },
    {
      "bufferView": 168,
      "componentType": 5126,
      "count": 522,
      "type": "VEC3",
      "min": [
        -0.065,
        -0.009,
        -0.009
      ],
      "max": [
        0.065,
        0.009,
        0.009
      ]
    },
    {
      "bufferView": 169,
      "componentType": 5126,
      "count": 522,
      "type": "VEC3",
      "min": [
        -1,
        -1.0,
        -1.0
      ],
      "max": [
        1,
        1.0,
        1.0
      ]
    },
    {
      "bufferView": 170,
      "componentType": 5126,
      "count": 522,
      "type": "VEC2"
    },
    {
      "bufferView": 171,
      "componentType": 5125,
      "count": 2304,
      "type": "SCALAR"
    },
    {
      "bufferView": 172,
      "componentType": 5126,
      "count": 522,
      "type": "VEC3",
      "min": [
        -0.1720465053408525,
        -0.009,
        -0.009
      ],
      "max": [
        0.1720465053408525,
        0.009,
        0.009
      ]
    },
    {
      "bufferView": 173,
      "componentType": 5126,
      "count": 522,
      "type": "VEC3",
      "min": [
        -1,
        -1.0,
        -1.0
      ],
      "max": [
        1,
        1.0,
        1.0
      ]
    },
    {
      "bufferView": 174,
      "componentType": 5126,
      "count": 522,
      "type": "VEC2"
    },
    {
      "bufferView": 175,
      "componentType": 5125,
      "count": 2304,
      "type": "SCALAR"
    },
    {
      "bufferView": 176,
      "componentType": 5126,
      "count": 522,
      "type": "VEC3",
      "min": [
        -0.06095900261651268,
        -0.009,
        -0.009
      ],
      "max": [
        0.06095900261651268,
        0.009,
        0.009
      ]
    },
    {
      "bufferView": 177,
      "componentType": 5126,
      "count": 522,
      "type": "VEC3",
      "min": [
        -1,
        -1.0,
        -1.0
      ],
      "max": [
        1,
        1.0,
        1.0
      ]
    },
    {
      "bufferView": 178,
      "componentType": 5126,
      "count": 522,
      "type": "VEC2"
    },
    {
      "bufferView": 179,
      "componentType": 5125,
      "count": 2304,
      "type": "SCALAR"
    }
  ]
}
