{
  "asset": {
    "version": "2.0",
    "generator": "FactoryCore detailed cell asset generator"
  },
  "scene": 0,
  "scenes": [
    {
      "nodes": [
        0,
        1,
        2,
        3,
        4,
        5,
        6,
        7,
        8,
        9,
        10,
        11,
        15,
        16
      ]
    }
  ],
  "nodes": [
    {
      "name": "Pneumatic barrel",
      "mesh": 0,
      "translation": [
        0.0,
        0,
        0
      ]
    },
    {
      "name": "Cylinder end plate",
      "mesh": 1,
      "translation": [
        -0.18,
        0,
        0
      ]
    },
    {
      "name": "Tie rod",
      "mesh": 2,
      "translation": [
        0,
        -0.053,
        -0.053
      ]
    },
    {
      "name": "Tie rod",
      "mesh": 2,
      "translation": [
        0,
        -0.053,
        0.053
      ]
    },
    {
      "name": "Tie rod",
      "mesh": 2,
      "translation": [
        0,
        0.053,
        -0.053
      ]
    },
    {
      "name": "Tie rod",
      "mesh": 2,
      "translation": [
        0,
        0.053,
        0.053
      ]
    },
    {
      "name": "Cylinder end plate",
      "mesh": 1,
      "translation": [
        0.18,
        0,
        0
      ]
    },
    {
      "name": "Tie rod",
      "mesh": 2,
      "translation": [
        0,
        -0.053,
        -0.053
      ]
    },
    {
      "name": "Tie rod",
      "mesh": 2,
      "translation": [
        0,
        -0.053,
        0.053
      ]
    },
    {
      "name": "Tie rod",
      "mesh": 2,
      "translation": [
        0,
        0.053,
        -0.053
      ]
    },
    {
      "name": "Tie rod",
      "mesh": 2,
      "translation": [
        0,
        0.053,
        0.053
      ]
    },
    {
      "name": "Motion",
      "translation": [
        0,
        0,
        0
      ],
      "children": [
        12,
        13,
        14
      ]
    },
    {
      "name": "Chrome piston rod",
      "mesh": 3,
      "translation": [
        0.25,
        0,
        0
      ]
    },
    {
      "name": "Tool coupling",
      "mesh": 4,
      "translation": [
        0.57,
        0,
        0
      ]
    },
    {
      "name": "Process pad",
      "mesh": 5,
      "translation": [
        0.6055,
        0,
        0
      ]
    },
    {
      "name": "Pneumatic fitting",
      "mesh": 6,
      "translation": [
        -0.1,
        0.068,
        0
      ],
      "rotation": [
        0,
        0,
        0.7071067811865476,
        0.7071067811865476
      ]
    },
    {
      "name": "Pneumatic fitting",
      "mesh": 6,
      "translation": [
        0.1,
        0.068,
        0
      ],
      "rotation": [
        0,
        0,
        0.7071067811865476,
        0.7071067811865476
      ]
    }
  ],
  "meshes": [
    {
      "name": "Pneumatic barrel",
      "primitives": [
        {
          "attributes": {
            "POSITION": 0,
            "NORMAL": 1,
            "TEXCOORD_0": 2
          },
          "indices": 3,
          "material": 0
        }
      ]
    },
    {
      "name": "Cylinder end plate",
      "primitives": [
        {
          "attributes": {
            "POSITION": 4,
            "NORMAL": 5,
            "TEXCOORD_0": 6
          },
          "indices": 7,
          "material": 2
        }
      ]
    },
    {
      "name": "Tie rod",
      "primitives": [
        {
          "attributes": {
            "POSITION": 8,
            "NORMAL": 9,
            "TEXCOORD_0": 10
          },
          "indices": 11,
          "material": 1
        }
      ]
    },
    {
      "name": "Chrome piston rod",
      "primitives": [
        {
          "attributes": {
            "POSITION": 12,
            "NORMAL": 13,
            "TEXCOORD_0": 14
          },
          "indices": 15,
          "material": 1
        }
      ]
    },
    {
      "name": "Tool coupling",
      "primitives": [
        {
          "attributes": {
            "POSITION": 16,
            "NORMAL": 17,
            "TEXCOORD_0": 18
          },
          "indices": 19,
          "material": 2
        }
      ]
    },
    {
      "name": "Process pad",
      "primitives": [
        {
          "attributes": {
            "POSITION": 20,
            "NORMAL": 21,
            "TEXCOORD_0": 22
          },
          "indices": 23,
          "material": 3
        }
      ]
    },
    {
      "name": "Pneumatic fitting",
      "primitives": [
        {
          "attributes": {
            "POSITION": 24,
            "NORMAL": 25,
            "TEXCOORD_0": 26
          },
          "indices": 27,
          "material": 1
        }
      ]
    }
  ],
  "materials": [
    {
      "name": "Satin machined aluminium",
      "pbrMetallicRoughness": {
        "baseColorFactor": [
          0.72,
          0.76,
          0.79,
          1
        ],
        "metallicFactor": 0.88,
        "roughnessFactor": 0.25,
        "baseColorTexture": {
          "index": 0
        }
      },
      "normalTexture": {
        "index": 2,
        "scale": 0.35
      }
    },
    {
      "name": "Brushed stainless steel",
      "pbrMetallicRoughness": {
        "baseColorFactor": [
          0.72,
          0.76,
          0.81,
          1
        ],
        "metallicFactor": 0.96,
        "roughnessFactor": 0.19
      }
    },
    {
      "name": "Graphite powder coat",
      "pbrMetallicRoughness": {
        "baseColorFactor": [
          0.035,
          0.047,
          0.06,
          1
        ],
        "metallicFactor": 0.28,
        "roughnessFactor": 0.44
      }
    },
    {
      "name": "Deep teal enclosure",
      "pbrMetallicRoughness": {
        "baseColorFactor": [
          0.035,
          0.22,
          0.245,
          1
        ],
        "metallicFactor": 0.3,
        "roughnessFactor": 0.31
      }
    },
    {
      "name": "Safety yellow",
      "pbrMetallicRoughness": {
        "baseColorFactor": [
          0.95,
          0.57,
          0.035,
          1
        ],
        "metallicFactor": 0.08,
        "roughnessFactor": 0.37
      }
    },
    {
      "name": "Textured conveyor rubber",
      "pbrMetallicRoughness": {
        "baseColorFactor": [
          1,
          1,
          1,
          1
        ],
        "metallicFactor": 0,
        "roughnessFactor": 0.79,
        "baseColorTexture": {
          "index": 1
        }
      }
    },
    {
      "name": "Product ivory polymer",
      "pbrMetallicRoughness": {
        "baseColorFactor": [
          0.76,
          0.75,
          0.64,
          1
        ],
        "metallicFactor": 0.04,
        "roughnessFactor": 0.36
      }
    },
    {
      "name": "Status green",
      "pbrMetallicRoughness": {
        "baseColorFactor": [
          0.04,
          0.7,
          0.24,
          1
        ],
        "metallicFactor": 0,
        "roughnessFactor": 0.22
      },
      "emissiveFactor": [
        0.02,
        0.35,
        0.08
      ]
    },
    {
      "name": "Alarm red",
      "pbrMetallicRoughness": {
        "baseColorFactor": [
          0.8,
          0.018,
          0.015,
          1
        ],
        "metallicFactor": 0,
        "roughnessFactor": 0.3
      },
      "emissiveFactor": [
        0.3,
        0.003,
        0.002
      ]
    },
    {
      "name": "Protective polycarbonate",
      "pbrMetallicRoughness": {
        "baseColorFactor": [
          0.5,
          0.75,
          0.84,
          0.16
        ],
        "metallicFactor": 0,
        "roughnessFactor": 0.08
      },
      "alphaMode": "BLEND",
      "doubleSided": true
    },
    {
      "name": "Operator display",
      "pbrMetallicRoughness": {
        "baseColorFactor": [
          1,
          1,
          1,
          1
        ],
        "metallicFactor": 0,
        "roughnessFactor": 0.31,
        "baseColorTexture": {
          "index": 4
        }
      },
      "emissiveTexture": {
        "index": 4
      },
      "emissiveFactor": [
        0.3,
        0.3,
        0.3
      ]
    },
    {
      "name": "Identification plate",
      "pbrMetallicRoughness": {
        "baseColorFactor": [
          1,
          1,
          1,
          1
        ],
        "metallicFactor": 0.05,
        "roughnessFactor": 0.45,
        "baseColorTexture": {
          "index": 5
        }
      }
    },
    {
      "name": "Product identification",
      "pbrMetallicRoughness": {
        "baseColorFactor": [
          1,
          1,
          1,
          1
        ],
        "metallicFactor": 0,
        "roughnessFactor": 0.6,
        "baseColorTexture": {
          "index": 6
        }
      }
    },
    {
      "name": "Workshop concrete",
      "pbrMetallicRoughness": {
        "baseColorFactor": [
          1,
          1,
          1,
          1
        ],
        "metallicFactor": 0.03,
        "roughnessFactor": 0.72,
        "baseColorTexture": {
          "index": 3
        }
      }
    },
    {
      "name": "Blue pneumatic tube",
      "pbrMetallicRoughness": {
        "baseColorFactor": [
          0.025,
          0.24,
          0.55,
          1
        ],
        "metallicFactor": 0.02,
        "roughnessFactor": 0.34
      }
    }
  ],
  "images": [
    {
      "uri": "../Textures/CellMetal.png"
    },
    {
      "uri": "../Textures/CellRubber.png"
    },
    {
      "uri": "../Textures/CellNormal.png"
    },
    {
      "uri": "../Textures/CellFloor.png"
    },
    {
      "uri": "../Textures/CellPanel.png"
    },
    {
      "uri": "../Textures/CellLabel.png"
    },
    {
      "uri": "../Textures/ProductLabel.png"
    }
  ],
  "textures": [
    {
      "source": 0,
      "sampler": 0
    },
    {
      "source": 1,
      "sampler": 0
    },
    {
      "source": 2,
      "sampler": 0
    },
    {
      "source": 3,
      "sampler": 0
    },
    {
      "source": 4,
      "sampler": 0
    },
    {
      "source": 5,
      "sampler": 0
    },
    {
      "source": 6,
      "sampler": 0
    }
  ],
  "samplers": [
    {
      "magFilter": 9729,
      "minFilter": 9987,
      "wrapS": 10497,
      "wrapT": 10497
    }
  ],
  "buffers": [
    {
      "uri": "CellPress.bin",
      "byteLength": 147456
    }
  ],
  "bufferViews": [
    {
      "buffer": 0,
      "byteOffset": 0,
      "byteLength": 3528,
      "target": 34962
    },
    {
      "buffer": 0,
      "byteOffset": 3528,
      "byteLength": 3528,
      "target": 34962
    },
    {
      "buffer": 0,
      "byteOffset": 7056,
      "byteLength": 2352,
      "target": 34962
    },
    {
      "buffer": 0,
      "byteOffset": 9408,
      "byteLength": 5184,
      "target": 34963
    },
    {
      "buffer": 0,
      "byteOffset": 14592,
      "byteLength": 3528,
      "target": 34962
    },
    {
      "buffer": 0,
      "byteOffset": 18120,
      "byteLength": 3528,
      "target": 34962
    },
    {
      "buffer": 0,
      "byteOffset": 21648,
      "byteLength": 2352,
      "target": 34962
    },
    {
      "buffer": 0,
      "byteOffset": 24000,
      "byteLength": 5184,
      "target": 34963
    },
    {
      "buffer": 0,
      "byteOffset": 29184,
      "byteLength": 6264,
      "target": 34962
    },
    {
      "buffer": 0,
      "byteOffset": 35448,
      "byteLength": 6264,
      "target": 34962
    },
    {
      "buffer": 0,
      "byteOffset": 41712,
      "byteLength": 4176,
      "target": 34962
    },
    {
      "buffer": 0,
      "byteOffset": 45888,
      "byteLength": 9216,
      "target": 34963
    },
    {
      "buffer": 0,
      "byteOffset": 55104,
      "byteLength": 6264,
      "target": 34962
    },
    {
      "buffer": 0,
      "byteOffset": 61368,
      "byteLength": 6264,
      "target": 34962
    },
    {
      "buffer": 0,
      "byteOffset": 67632,
      "byteLength": 4176,
      "target": 34962
    },
    {
      "buffer": 0,
      "byteOffset": 71808,
      "byteLength": 9216,
      "target": 34963
    },
    {
      "buffer": 0,
      "byteOffset": 81024,
      "byteLength": 6264,
      "target": 34962
    },
    {
      "buffer": 0,
      "byteOffset": 87288,
      "byteLength": 6264,
      "target": 34962
    },
    {
      "buffer": 0,
      "byteOffset": 93552,
      "byteLength": 4176,
      "target": 34962
    },
    {
      "buffer": 0,
      "byteOffset": 97728,
      "byteLength": 9216,
      "target": 34963
    },
    {
      "buffer": 0,
      "byteOffset": 106944,
      "byteLength": 3528,
      "target": 34962
    },
    {
      "buffer": 0,
      "byteOffset": 110472,
      "byteLength": 3528,
      "target": 34962
    },
    {
      "buffer": 0,
      "byteOffset": 114000,
      "byteLength": 2352,
      "target": 34962
    },
    {
      "buffer": 0,
      "byteOffset": 116352,
      "byteLength": 5184,
      "target": 34963
    },
    {
      "buffer": 0,
      "byteOffset": 121536,
      "byteLength": 6264,
      "target": 34962
    },
    {
      "buffer": 0,
      "byteOffset": 127800,
      "byteLength": 6264,
      "target": 34962
    },
    {
      "buffer": 0,
      "byteOffset": 134064,
      "byteLength": 4176,
      "target": 34962
    },
    {
      "buffer": 0,
      "byteOffset": 138240,
      "byteLength": 9216,
      "target": 34963
    }
  ],
  "accessors": [
    {
      "bufferView": 0,
      "componentType": 5126,
      "count": 294,
      "type": "VEC3",
      "min": [
        -0.16,
        -0.0525,
        -0.0525
      ],
      "max": [
        0.16,
        0.0525,
        0.0525
      ]
    },
    {
      "bufferView": 1,
      "componentType": 5126,
      "count": 294,
      "type": "VEC3",
      "min": [
        -1.0,
        -1.0,
        -1.0
      ],
      "max": [
        1.0,
        1.0,
        1.0
      ]
    },
    {
      "bufferView": 2,
      "componentType": 5126,
      "count": 294,
      "type": "VEC2"
    },
    {
      "bufferView": 3,
      "componentType": 5125,
      "count": 1296,
      "type": "SCALAR"
    },
    {
      "bufferView": 4,
      "componentType": 5126,
      "count": 294,
      "type": "VEC3",
      "min": [
        -0.02,
        -0.0675,
        -0.0675
      ],
      "max": [
        0.02,
        0.0675,
        0.0675
      ]
    },
    {
      "bufferView": 5,
      "componentType": 5126,
      "count": 294,
      "type": "VEC3",
      "min": [
        -1.0,
        -1.0,
        -1.0
      ],
      "max": [
        1.0,
        1.0,
        1.0
      ]
    },
    {
      "bufferView": 6,
      "componentType": 5126,
      "count": 294,
      "type": "VEC2"
    },
    {
      "bufferView": 7,
      "componentType": 5125,
      "count": 1296,
      "type": "SCALAR"
    },
    {
      "bufferView": 8,
      "componentType": 5126,
      "count": 522,
      "type": "VEC3",
      "min": [
        -0.195,
        -0.0045,
        -0.0045
      ],
      "max": [
        0.195,
        0.0045,
        0.0045
      ]
    },
    {
      "bufferView": 9,
      "componentType": 5126,
      "count": 522,
      "type": "VEC3",
      "min": [
        -1,
        -1.0,
        -1.0
      ],
      "max": [
        1,
        1.0,
        1.0
      ]
    },
    {
      "bufferView": 10,
      "componentType": 5126,
      "count": 522,
      "type": "VEC2"
    },
    {
      "bufferView": 11,
      "componentType": 5125,
      "count": 2304,
      "type": "SCALAR"
    },
    {
      "bufferView": 12,
      "componentType": 5126,
      "count": 522,
      "type": "VEC3",
      "min": [
        -0.33,
        -0.0125,
        -0.012500000000000002
      ],
      "max": [
        0.33,
        0.0125,
        0.012500000000000002
      ]
    },
    {
      "bufferView": 13,
      "componentType": 5126,
      "count": 522,
      "type": "VEC3",
      "min": [
        -1,
        -1.0,
        -1.0
      ],
      "max": [
        1,
        1.0,
        1.0
      ]
    },
    {
      "bufferView": 14,
      "componentType": 5126,
      "count": 522,
      "type": "VEC2"
    },
    {
      "bufferView": 15,
      "componentType": 5125,
      "count": 2304,
      "type": "SCALAR"
    },
    {
      "bufferView": 16,
      "componentType": 5126,
      "count": 522,
      "type": "VEC3",
      "min": [
        -0.035,
        -0.03,
        -0.03
      ],
      "max": [
        0.035,
        0.03,
        0.03
      ]
    },
    {
      "bufferView": 17,
      "componentType": 5126,
      "count": 522,
      "type": "VEC3",
      "min": [
        -1,
        -1.0,
        -1.0
      ],
      "max": [
        1,
        1.0,
        1.0
      ]
    },
    {
      "bufferView": 18,
      "componentType": 5126,
      "count": 522,
      "type": "VEC2"
    },
    {
      "bufferView": 19,
      "componentType": 5125,
      "count": 2304,
      "type": "SCALAR"
    },
    {
      "bufferView": 20,
      "componentType": 5126,
      "count": 294,
      "type": "VEC3",
      "min": [
        -0.013500000000000002,
        -0.075,
        -0.095
      ],
      "max": [
        0.013500000000000002,
        0.075,
        0.095
      ]
    },
    {
      "bufferView": 21,
      "componentType": 5126,
      "count": 294,
      "type": "VEC3",
      "min": [
        -1.0,
        -1.0,
        -1.0
      ],
      "max": [
        1.0,
        1.0,
        1.0
      ]
    },
    {
      "bufferView": 22,
      "componentType": 5126,
      "count": 294,
      "type": "VEC2"
    },
    {
      "bufferView": 23,
      "componentType": 5125,
      "count": 1296,
      "type": "SCALAR"
    },
    {
      "bufferView": 24,
      "componentType": 5126,
      "count": 522,
      "type": "VEC3",
      "min": [
        -0.0175,
        -0.01,
        -0.01
      ],
      "max": [
        0.0175,
        0.01,
        0.01
      ]
    },
    {
      "bufferView": 25,
      "componentType": 5126,
      "count": 522,
      "type": "VEC3",
      "min": [
        -1,
        -1.0,
        -1.0
      ],
      "max": [
        1,
        1.0,
        1.0
      ]
    },
    {
      "bufferView": 26,
      "componentType": 5126,
      "count": 522,
      "type": "VEC2"
    },
    {
      "bufferView": 27,
      "componentType": 5125,
      "count": 2304,
      "type": "SCALAR"
    }
  ]
}
